<?xml version="1.0" encoding="utf-8"?>
<!-- Generator: Adobe Illustrator 21.0.2, SVG Export Plug-In . SVG Version: 6.00 Build 0)  -->
<svg version="1.1" id="Layer_1" xmlns="http://www.w3.org/2000/svg" xmlns:xlink="http://www.w3.org/1999/xlink" x="0px" y="0px"
	 viewBox="0 0 500 500" style="enable-background:new 0 0 500 500;" xml:space="preserve">
<style type="text/css">
	.st0{opacity:0.4;}
	.st1{fill:#FFFFFF;}
	.st2{fill:#D3CFE8;}
	.st3{fill:#BCBEC0;stroke:#BCBEC0;stroke-width:0.8441;stroke-miterlimit:10;}
	.st4{fill:#D1D3D4;}
	.st5{fill:#F1F2F2;stroke:#F1F2F2;stroke-width:0.8441;stroke-miterlimit:10;}
	.st6{fill:#7C7A92;}
	.st7{fill:#444444;}
	.st8{fill:#A27F6B;}
</style>
<g class="st0">
	<rect x="66.3" y="49.7" class="st1" width="380.9" height="380.9"/>
</g>
<rect x="93.7" y="66.4" class="st2" width="326" height="211.6"/>
<polygon class="st3" points="208.1,174 274.3,75.2 354.3,202.6 354.3,295.1 197.1,295.1 "/>
<polygon class="st4" points="93.4,201.3 163.9,110.2 225.1,198.5 291.7,295.1 93.4,295.1 "/>
<polygon class="st5" points="419.4,259.2 362.6,184.7 281.7,295.1 419.4,295.1 "/>
<rect x="93.4" y="287.9" class="st6" width="326" height="77"/>
<rect x="93.4" y="263.2" class="st1" width="326" height="27.3"/>
<path class="st1" d="M164,109.2l-26.5,34.5c0,0,2.5,10,19.9,5c0,0,7.3,10.1,15.9,1.4c0,0,8.9,4.8,15.9-4.3L164,109.2z"/>
<path class="st1" d="M363.7,183.7l-17.9,22.7c0,0,1.7,6.6,13.5,3.3c0,0,4.9,6.6,10.8,0.9c0,0,6,3.2,10.8-2.8L363.7,183.7z"/>
<g>
	<polyline class="st7" points="372.4,228.7 363.6,240.1 370.4,240.1 361.4,256.4 366.9,256.4 356.3,281.9 364.4,281.9 375.7,281.9 
		374.7,224.9 	"/>
	<polyline class="st7" points="376.9,228.7 385.7,240.1 378.9,240.1 387.9,256.4 382.3,256.4 392.9,281.9 384.8,281.9 373.5,281.9 
		374.6,224.9 	"/>
</g>
<g>
	<polyline class="st7" points="338,244.2 332.4,251.5 336.6,251.5 330.9,261.7 334.5,261.7 327.8,277.7 332.8,277.7 340.1,277.7 
		339.3,241.8 	"/>
	<polyline class="st7" points="340.7,244.2 346.3,251.5 342.1,251.5 347.7,261.7 344.3,261.7 350.9,277.7 345.8,277.7 338.7,277.7 
		339.3,241.8 	"/>
</g>
<g>
	<polyline class="st7" points="201.8,237.9 195.5,246.1 200.3,246.1 193.8,257.8 197.8,257.8 190.2,275.9 196,275.9 204.1,275.9 
		203.3,235.2 	"/>
	<polyline class="st7" points="204.9,237.9 211.2,246.1 206.4,246.1 212.8,257.8 208.9,257.8 216.3,275.9 210.7,275.9 202.5,275.9 
		203.3,235.2 	"/>
</g>
<g>
	<polyline class="st7" points="127.6,233.3 119.9,243.4 125.9,243.4 117.9,257.8 122.8,257.8 113.5,280.1 120.5,280.1 130.6,280.1 
		129.6,230 	"/>
	<polyline class="st7" points="131.5,233.3 139.3,243.4 133.4,243.4 141.3,257.8 136.5,257.8 145.7,280.1 138.7,280.1 128.7,280.1 
		129.5,230 	"/>
</g>
<g>
	<polyline class="st7" points="167,244.7 163.1,249.7 166.1,249.7 162.1,256.9 164.6,256.9 159.9,268 163.5,268 168.4,268 168,243 	
		"/>
	<polyline class="st7" points="169,244.7 172.8,249.7 169.9,249.7 173.9,256.9 171.4,256.9 176.1,268 172.5,268 167.5,268 168,243 	
		"/>
</g>
<rect x="167.1" y="268" class="st8" width="2.7" height="5.1"/>
<rect x="202.1" y="275.9" class="st8" width="4" height="7.5"/>
<rect x="128" y="280.1" class="st8" width="4" height="5.7"/>
<rect x="338" y="277.7" class="st8" width="4" height="7.5"/>
<rect x="373.7" y="281.9" class="st8" width="4" height="4"/>
<path class="st1" d="M274.5,73.6L248,108c0,0,2.5,10,19.9,5c0,0,7.3,10.1,15.9,1.4c0,0,8.9,4.8,15.9-4.3L274.5,73.6z"/>
</svg>
