<?xml version="1.0" encoding="utf-8"?>
<!-- Generator: Adobe Illustrator 21.0.2, SVG Export Plug-In . SVG Version: 6.00 Build 0)  -->
<svg version="1.1" id="Layer_1" xmlns="http://www.w3.org/2000/svg" xmlns:xlink="http://www.w3.org/1999/xlink" x="0px" y="0px"
	 viewBox="0 0 600 400" style="enable-background:new 0 0 600 400;" xml:space="preserve">
<style type="text/css">
	.st0{fill:#DDDDDD;}
	.st1{fill:#7C7A92;}
	.st2{fill:#BBBBBB;}
	.st3{fill:url(#SVGID_1_);}
	.st4{fill:url(#SVGID_2_);}
	.st5{fill:url(#SVGID_3_);}
	.st6{fill:#FADB7C;}
	.st7{fill:#F6C13F;}
	.st8{fill:#FFFFFF;}
	.st9{fill:#FFFFFF;stroke:#FFFFFF;stroke-width:0.2905;stroke-miterlimit:10;}
	.st10{fill:#EAE2F5;}
	.st11{opacity:0.3;}
	.st12{fill:#231F20;}
	.st13{fill:none;stroke:#231F20;stroke-width:0.2132;stroke-miterlimit:10;}
	.st14{fill:#231F20;stroke:#231F20;stroke-width:0.1848;stroke-miterlimit:10;}
	.st15{fill:#414042;}
	.st16{fill:#555555;}
	.st17{opacity:0.46;}
	.st18{fill:none;stroke:#FFFFFF;stroke-width:0.2132;stroke-miterlimit:10;}
	.st19{fill:#737577;stroke:#FFFFFF;stroke-width:0.1848;stroke-miterlimit:10;}
	.st20{fill:url(#SVGID_4_);}
	.st21{fill:#8B0051;}
</style>
<g>
	<path class="st0" d="M319,262.1H147.6V86.8c0,0-1.9-13.1,14.3-13.1s145.8,0,145.8,0L319,262.1z"/>
	<path class="st0" d="M293.3,262.5h170.9V87.1c0,0,1.9-13.1-14.2-13.1s-145.4,0-145.4,0L293.3,262.5z"/>
</g>
<rect x="160.8" y="86.8" class="st1" width="290" height="162.9"/>
<g>
	<path class="st2" d="M305.6,262.5H148.7V282c0,0-2.3,9.6,11.6,9.6c13.9,0,148.2,0,148.2,0L305.6,262.5z"/>
	<path class="st2" d="M299.6,262.5h163.3V282c0,0,2.3,9.6-12.1,9.6s-154.2,0-154.2,0L299.6,262.5z"/>
</g>
<linearGradient id="SVGID_1_" gradientUnits="userSpaceOnUse" x1="305.8985" y1="65.2" x2="305.8985" y2="108.4" gradientTransform="matrix(1 0 0 -1 0 400)">
	<stop  offset="7.050588e-02" style="stop-color:#888888"/>
	<stop  offset="0.1764" style="stop-color:#888888"/>
	<stop  offset="0.4934" style="stop-color:#EEEEEE"/>
	<stop  offset="0.6304" style="stop-color:#A6A6A6"/>
	<stop  offset="0.8113" style="stop-color:#4E4E4E"/>
	<stop  offset="0.9387" style="stop-color:#161616"/>
	<stop  offset="1" style="stop-color:#000000"/>
</linearGradient>
<path class="st3" d="M339.7,334.3l-32.7,0.5h-1.2h-1.2l-32.6-0.5c-11.6,0.1-19.3-1.4-9.9-5.8c8.8-4.1,10.4-10.2,10.4-10.2l2.4-26.7
	h61.9l2.4,26.7c0,0,1.6,6.1,10.5,10.2C359.1,332.9,351.4,334.4,339.7,334.3z"/>
<linearGradient id="SVGID_2_" gradientUnits="userSpaceOnUse" x1="306.4" y1="65.2" x2="306.4" y2="65.2" gradientTransform="matrix(1 0 0 -1 0 400)">
	<stop  offset="7.050588e-02" style="stop-color:#888888"/>
	<stop  offset="0.1764" style="stop-color:#888888"/>
	<stop  offset="0.4934" style="stop-color:#EEEEEE"/>
	<stop  offset="0.6304" style="stop-color:#A6A6A6"/>
	<stop  offset="0.8113" style="stop-color:#4E4E4E"/>
	<stop  offset="0.9387" style="stop-color:#161616"/>
	<stop  offset="1" style="stop-color:#000000"/>
</linearGradient>
<polygon class="st4" points="307,334.8 307,334.8 305.8,334.8 "/>
<linearGradient id="SVGID_3_" gradientUnits="userSpaceOnUse" x1="305.25" y1="65.2" x2="305.25" y2="65.2" gradientTransform="matrix(1 0 0 -1 0 400)">
	<stop  offset="7.050588e-02" style="stop-color:#888888"/>
	<stop  offset="0.1764" style="stop-color:#888888"/>
	<stop  offset="0.4934" style="stop-color:#EEEEEE"/>
	<stop  offset="0.6304" style="stop-color:#A6A6A6"/>
	<stop  offset="0.8113" style="stop-color:#4E4E4E"/>
	<stop  offset="0.9387" style="stop-color:#161616"/>
	<stop  offset="1" style="stop-color:#000000"/>
</linearGradient>
<polygon class="st5" points="305.8,334.8 304.7,334.8 304.7,334.8 "/>
<g>
	<g>
		<path class="st6" d="M515.4,289.3c0.1,0,0.2,0,0.2,0h0.1v0C515.7,289.3,515.5,289.3,515.4,289.3z"/>
	</g>
	<g>
		<path class="st6" d="M512.2,285.9c0,0.1,0,0.1,0,0.2h0.1c0-0.1,0-0.1,0-0.2H512.2z"/>
	</g>
	<g>
		<path class="st6" d="M515.4,289.3c0.1,0,0.2,0,0.2,0h0.1v0C515.7,289.3,515.5,289.3,515.4,289.3z M512.2,286.1L512.2,286.1
			c0.1-0.1,0.1-0.1,0.1-0.2h-0.1C512.2,285.9,512.2,286,512.2,286.1z"/>
	</g>
	<g>
		<path class="st6" d="M541.4,285.2c-0.4-1.3-1.5-2.4-3-2.5c-0.8-0.1-18.1-2.3-19-18.6v-1.7c0-1.9-1.6-3.5-3.5-3.5
			c-0.1,0-0.2,0-0.3,0c-0.1,0-0.2,0-0.3,0c-1.9,0-3.5,1.5-3.5,3.5c0,0.5,0,0.9,0,1.2c0,0.1,0,0.2,0,0.3
			c-1.1,16.5-18.6,18.3-19.4,18.4c-1.8,0.2-3.2,1.8-3.1,3.6c0,0.6,0.2,1.1,0.5,1.6c0.5,1,1.5,1.8,2.7,1.9c0.8,0.1,18.1,2.3,19,18.6
			v1.7c0,1.8,1.4,3.3,3.2,3.4c0,0,0,0,0,0c0.3,0.1,0.6,0.1,0.9,0.1c1.9,0,3.5-1.5,3.5-3.5c0-0.5,0-0.9,0-1.2c0-0.1,0-0.2,0-0.3
			c1.2-16.5,18.6-18.3,19.4-18.4c1.8-0.2,3.2-1.8,3.1-3.6C541.6,285.9,541.6,285.5,541.4,285.2z M512.2,285.9h0.1c0,0.1,0,0.1,0,0.2
			h-0.1C512.2,286,512.2,285.9,512.2,285.9z M515.7,289.4c-0.1,0-0.2,0-0.2,0c0.1,0,0.2,0,0.3,0v0H515.7z"/>
		<path class="st6" d="M515.4,289.3c0.1,0,0.2,0,0.2,0h0.1v0C515.7,289.3,515.5,289.3,515.4,289.3z M512.2,286.1L512.2,286.1
			c0.1-0.1,0.1-0.1,0.1-0.2h-0.1C512.2,285.9,512.2,286,512.2,286.1z"/>
	</g>
	<g>
		<path class="st7" d="M487.9,260.5L487.9,260.5L487.9,260.5c0.1,0,0.1,0,0.1,0c0,0,0.1,0,0.1,0C488,260.5,488,260.5,487.9,260.5z"
			/>
		<path class="st7" d="M499,257.4c0,0-2.2-0.3-4.4-1.5c-2.9-1.6-4.4-4.1-4.6-7.3V248c0,0,0,0,0,0v-0.2c0-0.9-0.7-1.6-1.6-1.6
			c0,0-0.1,0-0.1,0c0,0-0.1,0-0.2,0c-0.9,0-1.6,0.7-1.6,1.6v0.7c-0.5,7.7-8.8,8.6-9.1,8.6c-0.6,0.1-1.2,0.5-1.4,1c0,0,0,0,0,0
			c-0.1,0.2-0.2,0.4-0.2,0.7c-0.1,0.9,0.6,1.6,1.5,1.7c0,0,2.2,0.3,4.4,1.5c2.9,1.6,4.4,4.1,4.6,7.3v0.8c0,0.9,0.7,1.6,1.6,1.6
			c0,0,0.1,0,0.1,0c0,0,0.1,0,0.2,0c0.9,0,1.6-0.7,1.6-1.6v-0.7c0.5-7.7,8.8-8.6,9.1-8.6c0.6-0.1,1.2-0.5,1.4-1c0,0,0,0,0,0
			c0.1-0.2,0.2-0.4,0.2-0.7C500.5,258.2,499.8,257.5,499,257.4z M487.9,260.5L487.9,260.5c0.1,0,0.1,0,0.2,0c0,0-0.1,0-0.1,0
			C488,260.5,488,260.5,487.9,260.5L487.9,260.5z"/>
	</g>
	<g>
		<path class="st7" d="M487.9,260.5L487.9,260.5L487.9,260.5c0.1,0,0.1,0,0.1,0c0,0,0.1,0,0.1,0C488,260.5,488,260.5,487.9,260.5z"
			/>
	</g>
	<g>
		<path class="st7" d="M487.9,260.5L487.9,260.5L487.9,260.5c0.1,0,0.1,0,0.1,0c0,0,0.1,0,0.1,0C488,260.5,488,260.5,487.9,260.5z"
			/>
	</g>
</g>
<path class="st8" d="M313.1,126.6"/>
<rect x="250.4" y="110" class="st9" width="108.5" height="116.4"/>
<rect x="259.4" y="117.4" class="st10" width="90.5" height="84.8"/>
<g>
	<g class="st11">
		<path class="st12" d="M325,143.5h-5.8c-1.1,0-1.9-0.9-1.9-1.9V135c0-1.1,0.9-1.9,1.9-1.9h5.8c1.1,0,1.9,0.9,1.9,1.9v6.6
			C326.9,142.6,326,143.5,325,143.5z"/>
		<path class="st12" d="M331.3,186.3h-52.1c-2.7,0-5-2.2-5-5v-36.9c0-2.7,2.2-5,5-5h52.1c2.7,0,5,2.2,5,5v36.9
			C336.3,184.1,334.1,186.3,331.3,186.3z"/>
		<circle class="st12" cx="305.4" cy="166.4" r="13.6"/>
		<circle class="st13" cx="305.4" cy="166.4" r="13.6"/>
		<circle class="st12" cx="306.2" cy="165.5" r="13.6"/>
		<circle class="st13" cx="306.2" cy="165.5" r="13.6"/>
		<circle class="st14" cx="306.2" cy="165.5" r="11.8"/>
		<circle class="st12" cx="305.4" cy="166.4" r="8"/>
		<circle class="st12" cx="306.2" cy="165.5" r="8"/>
		<path class="st12" d="M306,149.2h-11.8c-1.2,0-2.2-1-2.2-2.2v-8.4c0-1.2,1-2.2,2.2-2.2H306c1.2,0,2.2,1,2.2,2.2v8.4
			C308.2,148.2,307.2,149.2,306,149.2z"/>
		<path class="st12" d="M306.7,148.4h-11.8c-1.2,0-2.2-1-2.2-2.2v-8.4c0-1.2,1-2.2,2.2-2.2h11.8c1.2,0,2.2,1,2.2,2.2v8.4
			C308.9,147.4,307.9,148.4,306.7,148.4z"/>
		<path class="st12" d="M315.8,148h-3.7c-0.8,0-1.4-0.6-1.4-1.4v-1.1c0-0.8,0.6-1.4,1.4-1.4h3.7c0.8,0,1.4,0.6,1.4,1.4v1.1
			C317.2,147.4,316.6,148,315.8,148z"/>
		<path class="st12" d="M316.5,147.4h-3.7c-0.8,0-1.4-0.6-1.4-1.4v-1.1c0-0.8,0.6-1.4,1.4-1.4h3.7c0.8,0,1.4,0.6,1.4,1.4v1.1
			C317.9,146.7,317.3,147.4,316.5,147.4z"/>
		<path class="st12" d="M323.8,148h-3.7c-0.8,0-1.4-0.6-1.4-1.4v-1.1c0-0.8,0.6-1.4,1.4-1.4h3.7c0.8,0,1.4,0.6,1.4,1.4v1.1
			C325.2,147.4,324.6,148,323.8,148z"/>
		<path class="st12" d="M324.5,147.4h-3.7c-0.8,0-1.4-0.6-1.4-1.4v-1.1c0-0.8,0.6-1.4,1.4-1.4h3.7c0.8,0,1.4,0.6,1.4,1.4v1.1
			C325.9,146.7,325.3,147.4,324.5,147.4z"/>
		<path class="st12" d="M331.9,148h-3.7c-0.8,0-1.4-0.6-1.4-1.4v-1.1c0-0.8,0.6-1.4,1.4-1.4h3.7c0.8,0,1.4,0.6,1.4,1.4v1.1
			C333.2,147.4,332.6,148,331.9,148z"/>
		<path class="st12" d="M332.5,147.4h-3.7c-0.8,0-1.4-0.6-1.4-1.4v-1.1c0-0.8,0.6-1.4,1.4-1.4h3.7c0.8,0,1.4,0.6,1.4,1.4v1.1
			C333.9,146.7,333.3,147.4,332.5,147.4z"/>
		<path class="st12" d="M327.9,136h-11.7c-0.9,0-1.6-0.7-1.6-1.6v-8c0-0.9,0.7-1.6,1.6-1.6h11.7c0.9,0,1.6,0.7,1.6,1.6v8
			C329.5,135.3,328.8,136,327.9,136z"/>
		<path class="st12" d="M327,134.8h-9.8c-0.7,0-1.3-0.6-1.3-1.3v-6.3c0-0.7,0.6-1.3,1.3-1.3h9.8c0.7,0,1.3,0.6,1.3,1.3v6.3
			C328.3,134.2,327.7,134.8,327,134.8z"/>
	</g>
	<g>
		<g>
			<path class="st15" d="M324.4,144.1h-5.8c-1.1,0-1.9-0.9-1.9-1.9v-6.6c0-1.1,0.9-1.9,1.9-1.9h5.8c1.1,0,1.9,0.9,1.9,1.9v6.6
				C326.3,143.3,325.4,144.1,324.4,144.1z"/>
			<g>
				<g>
					<path class="st16" d="M330.7,186.9h-52.1c-2.7,0-5-2.2-5-5V145c0-2.7,2.2-5,5-5h52.1c2.7,0,5,2.2,5,5v36.9
						C335.7,184.7,333.4,186.9,330.7,186.9z"/>
				</g>
				<g>
					<g>
						<g class="st17">
							<circle class="st12" cx="304.8" cy="167" r="13.6"/>
							<circle class="st13" cx="304.8" cy="167" r="13.6"/>
						</g>
						<g>
							<circle class="st8" cx="305.6" cy="166.2" r="13.6"/>
							<circle class="st18" cx="305.6" cy="166.2" r="13.6"/>
						</g>
					</g>
					<circle class="st19" cx="305.6" cy="166.2" r="11.8"/>
					<g>
						<g class="st17">
							<circle class="st12" cx="304.8" cy="167" r="8"/>
						</g>
						<g>
							
								<linearGradient id="SVGID_4_" gradientUnits="userSpaceOnUse" x1="297.6235" y1="233.8" x2="313.6449" y2="233.8" gradientTransform="matrix(1 0 0 -1 0 400)">
								<stop  offset="0" style="stop-color:#888888"/>
								<stop  offset="0.3949" style="stop-color:#4D4D4D"/>
								<stop  offset="0.8024" style="stop-color:#161616"/>
								<stop  offset="1" style="stop-color:#000000"/>
							</linearGradient>
							<circle class="st20" cx="305.6" cy="166.2" r="8"/>
						</g>
					</g>
				</g>
				<g>
					<g class="st17">
						<path class="st12" d="M305.4,149.8h-11.8c-1.2,0-2.2-1-2.2-2.2v-8.4c0-1.2,1-2.2,2.2-2.2h11.8c1.2,0,2.2,1,2.2,2.2v8.4
							C307.6,148.8,306.6,149.8,305.4,149.8z"/>
					</g>
					<g>
						<path class="st6" d="M306.1,149h-11.8c-1.2,0-2.2-1-2.2-2.2v-8.4c0-1.2,1-2.2,2.2-2.2h11.8c1.2,0,2.2,1,2.2,2.2v8.4
							C308.3,148.1,307.3,149,306.1,149z"/>
					</g>
				</g>
				<g>
					<g class="st17">
						<path class="st12" d="M315.2,148.7h-3.7c-0.8,0-1.4-0.6-1.4-1.4v-1.1c0-0.8,0.6-1.4,1.4-1.4h3.7c0.8,0,1.4,0.6,1.4,1.4v1.1
							C316.6,148,316,148.7,315.2,148.7z"/>
					</g>
					<g>
						<path class="st7" d="M315.9,148h-3.7c-0.8,0-1.4-0.6-1.4-1.4v-1.1c0-0.8,0.6-1.4,1.4-1.4h3.7c0.8,0,1.4,0.6,1.4,1.4v1.1
							C317.3,147.3,316.7,148,315.9,148z"/>
					</g>
				</g>
				<g>
					<g class="st17">
						<path class="st12" d="M323.2,148.7h-3.7c-0.8,0-1.4-0.6-1.4-1.4v-1.1c0-0.8,0.6-1.4,1.4-1.4h3.7c0.8,0,1.4,0.6,1.4,1.4v1.1
							C324.6,148,324,148.7,323.2,148.7z"/>
					</g>
					<g>
						<path class="st6" d="M323.9,148h-3.7c-0.8,0-1.4-0.6-1.4-1.4v-1.1c0-0.8,0.6-1.4,1.4-1.4h3.7c0.8,0,1.4,0.6,1.4,1.4v1.1
							C325.3,147.3,324.7,148,323.9,148z"/>
					</g>
				</g>
				<g>
					<g class="st17">
						<path class="st12" d="M331.3,148.7h-3.7c-0.8,0-1.4-0.6-1.4-1.4v-1.1c0-0.8,0.6-1.4,1.4-1.4h3.7c0.8,0,1.4,0.6,1.4,1.4v1.1
							C332.6,148,332,148.7,331.3,148.7z"/>
					</g>
					<g>
						<path class="st21" d="M331.9,148h-3.7c-0.8,0-1.4-0.6-1.4-1.4v-1.1c0-0.8,0.6-1.4,1.4-1.4h3.7c0.8,0,1.4,0.6,1.4,1.4v1.1
							C333.3,147.3,332.7,148,331.9,148z"/>
					</g>
				</g>
				<path class="st15" d="M327.3,136.6h-11.7c-0.9,0-1.6-0.7-1.6-1.6v-8c0-0.9,0.7-1.6,1.6-1.6h11.7c0.9,0,1.6,0.7,1.6,1.6v8
					C328.9,135.9,328.2,136.6,327.3,136.6z"/>
				<path class="st6" d="M326.4,135.4h-9.8c-0.7,0-1.3-0.6-1.3-1.3v-6.3c0-0.7,0.6-1.3,1.3-1.3h9.8c0.7,0,1.3,0.6,1.3,1.3v6.3
					C327.7,134.8,327.1,135.4,326.4,135.4z"/>
			</g>
		</g>
	</g>
</g>
<g>
	<g>
		<path class="st6" d="M515.4,289.3c0.1,0,0.2,0,0.2,0h0.1v0C515.7,289.3,515.5,289.3,515.4,289.3z"/>
	</g>
	<g>
		<path class="st6" d="M512.2,285.9c0,0.1,0,0.1,0,0.2h0.1c0-0.1,0-0.1,0-0.2H512.2z"/>
	</g>
	<g>
		<path class="st6" d="M515.4,289.3c0.1,0,0.2,0,0.2,0h0.1v0C515.7,289.3,515.5,289.3,515.4,289.3z M512.2,286.1L512.2,286.1
			c0.1-0.1,0.1-0.1,0.1-0.2h-0.1C512.2,285.9,512.2,286,512.2,286.1z"/>
	</g>
	<g>
		<path class="st6" d="M541.4,285.2c-0.4-1.3-1.5-2.4-3-2.5c-0.8-0.1-18.1-2.3-19-18.6v-1.7c0-1.9-1.6-3.5-3.5-3.5
			c-0.1,0-0.2,0-0.3,0c-0.1,0-0.2,0-0.3,0c-1.9,0-3.5,1.5-3.5,3.5c0,0.5,0,0.9,0,1.2c0,0.1,0,0.2,0,0.3
			c-1.1,16.5-18.6,18.3-19.4,18.4c-1.8,0.2-3.2,1.8-3.1,3.6c0,0.6,0.2,1.1,0.5,1.6c0.5,1,1.5,1.8,2.7,1.9c0.8,0.1,18.1,2.3,19,18.6
			v1.7c0,1.8,1.4,3.3,3.2,3.4c0,0,0,0,0,0c0.3,0.1,0.6,0.1,0.9,0.1c1.9,0,3.5-1.5,3.5-3.5c0-0.5,0-0.9,0-1.2c0-0.1,0-0.2,0-0.3
			c1.2-16.5,18.6-18.3,19.4-18.4c1.8-0.2,3.2-1.8,3.1-3.6C541.6,285.9,541.6,285.5,541.4,285.2z M512.2,285.9h0.1c0,0.1,0,0.1,0,0.2
			h-0.1C512.2,286,512.2,285.9,512.2,285.9z M515.7,289.4c-0.1,0-0.2,0-0.2,0c0.1,0,0.2,0,0.3,0v0H515.7z"/>
		<path class="st6" d="M515.4,289.3c0.1,0,0.2,0,0.2,0h0.1v0C515.7,289.3,515.5,289.3,515.4,289.3z M512.2,286.1L512.2,286.1
			c0.1-0.1,0.1-0.1,0.1-0.2h-0.1C512.2,285.9,512.2,286,512.2,286.1z"/>
	</g>
	<g>
		<path class="st7" d="M487.9,260.5L487.9,260.5L487.9,260.5c0.1,0,0.1,0,0.1,0c0,0,0.1,0,0.1,0C488,260.5,488,260.5,487.9,260.5z"
			/>
		<path class="st7" d="M499,257.4c0,0-2.2-0.3-4.4-1.5c-2.9-1.6-4.4-4.1-4.6-7.3V248c0,0,0,0,0,0v-0.2c0-0.9-0.7-1.6-1.6-1.6
			c0,0-0.1,0-0.1,0c0,0-0.1,0-0.2,0c-0.9,0-1.6,0.7-1.6,1.6v0.7c-0.5,7.7-8.8,8.6-9.1,8.6c-0.6,0.1-1.2,0.5-1.4,1c0,0,0,0,0,0
			c-0.1,0.2-0.2,0.4-0.2,0.7c-0.1,0.9,0.6,1.6,1.5,1.7c0,0,2.2,0.3,4.4,1.5c2.9,1.6,4.4,4.1,4.6,7.3v0.8c0,0.9,0.7,1.6,1.6,1.6
			c0,0,0.1,0,0.1,0c0,0,0.1,0,0.2,0c0.9,0,1.6-0.7,1.6-1.6v-0.7c0.5-7.7,8.8-8.6,9.1-8.6c0.6-0.1,1.2-0.5,1.4-1c0,0,0,0,0,0
			c0.1-0.2,0.2-0.4,0.2-0.7C500.5,258.2,499.8,257.5,499,257.4z M487.9,260.5L487.9,260.5c0.1,0,0.1,0,0.2,0c0,0-0.1,0-0.1,0
			C488,260.5,488,260.5,487.9,260.5L487.9,260.5z"/>
	</g>
	<g>
		<path class="st7" d="M487.9,260.5L487.9,260.5L487.9,260.5c0.1,0,0.1,0,0.1,0c0,0,0.1,0,0.1,0C488,260.5,488,260.5,487.9,260.5z"
			/>
	</g>
	<g>
		<path class="st7" d="M487.9,260.5L487.9,260.5L487.9,260.5c0.1,0,0.1,0,0.1,0c0,0,0.1,0,0.1,0C488,260.5,488,260.5,487.9,260.5z"
			/>
	</g>
</g>
<g>
	<g>
		<path class="st6" d="M108.5,83.6L108.5,83.6l0.1,0c0.1,0,0.2,0,0.2,0C108.7,83.6,108.6,83.6,108.5,83.6z"/>
	</g>
	<g>
		<path class="st6" d="M111.9,80.2c0,0.1,0,0.1,0,0.2h0.1c0-0.1,0-0.1,0-0.2H111.9z"/>
	</g>
	<g>
		<path class="st6" d="M108.5,83.6L108.5,83.6l0.1,0c0.1,0,0.2,0,0.2,0C108.7,83.6,108.6,83.6,108.5,83.6z M112,80.2h-0.1
			c0,0.1,0,0.1,0,0.2h0.1C112,80.3,112,80.2,112,80.2z"/>
	</g>
	<g>
		<path class="st6" d="M82.6,80.6c-0.1,1.8,1.3,3.4,3.1,3.6c0.7,0.1,18.2,1.9,19.4,18.4c0,0.1,0,0.2,0,0.3c0,0.3,0,0.7,0,1.2
			c0,1.9,1.5,3.5,3.5,3.5c0.3,0,0.6,0,0.9-0.1c0,0,0,0,0,0c1.8-0.1,3.2-1.6,3.2-3.4v-1.7c0.9-16.4,18.3-18.6,19-18.6
			c1.2-0.1,2.2-0.9,2.7-1.9c0.3-0.5,0.4-1,0.5-1.6c0.1-1.8-1.3-3.4-3.1-3.6c-0.7-0.1-18.3-1.9-19.4-18.4c0-0.1,0-0.2,0-0.3
			c0-0.3,0-0.7,0-1.2c0-1.9-1.5-3.5-3.5-3.5c-0.1,0-0.2,0-0.3,0c-0.1,0-0.2,0-0.3,0c-1.9,0-3.5,1.5-3.5,3.5v1.7
			c-0.9,16.4-18.3,18.6-19,18.6c-1.4,0.2-2.6,1.2-3,2.5C82.7,79.8,82.6,80.2,82.6,80.6z M112,80.4L112,80.4
			c-0.1-0.1-0.1-0.1-0.1-0.2h0.1C112,80.2,112,80.3,112,80.4z M108.5,83.6L108.5,83.6c0.1,0,0.2,0,0.3,0c-0.1,0-0.2,0-0.2,0H108.5z"
			/>
		<path class="st6" d="M108.5,83.6L108.5,83.6l0.1,0c0.1,0,0.2,0,0.2,0C108.7,83.6,108.6,83.6,108.5,83.6z M112,80.2h-0.1
			c0,0.1,0,0.1,0,0.2h0.1C112,80.3,112,80.2,112,80.2z"/>
	</g>
	<g>
		<path class="st7" d="M136.1,54.8C136.2,54.8,136.2,54.8,136.1,54.8c0.1,0,0.1,0,0.1,0h0.1v0C136.3,54.8,136.2,54.8,136.1,54.8z"/>
		<path class="st7" d="M123.8,53.4c0,0.2,0.1,0.5,0.2,0.7c0,0,0,0,0,0c0.2,0.6,0.7,1,1.4,1c0.3,0,8.6,0.9,9.1,8.6v0.7
			c0,0.9,0.7,1.6,1.6,1.6c0,0,0.1,0,0.2,0c0,0,0.1,0,0.1,0c0.9,0,1.6-0.7,1.6-1.6v-0.8c0.2-3.2,1.7-5.6,4.6-7.3
			c2.2-1.2,4.4-1.5,4.4-1.5c0.9-0.1,1.5-0.9,1.5-1.7c0-0.2-0.1-0.5-0.2-0.7c0,0,0,0,0,0c-0.2-0.6-0.7-1-1.4-1
			c-0.3,0-8.6-0.9-9.1-8.6v-0.7c0-0.9-0.7-1.6-1.6-1.6c0,0-0.1,0-0.2,0c0,0-0.1,0-0.1,0c-0.9,0-1.6,0.7-1.6,1.6v0.2c0,0,0,0,0,0v0.6
			c-0.2,3.2-1.7,5.6-4.6,7.3c-2.2,1.2-4.4,1.5-4.4,1.5C124.4,51.8,123.7,52.5,123.8,53.4z M136.2,54.8
			C136.2,54.8,136.2,54.8,136.2,54.8c-0.1,0-0.1,0-0.1,0C136.2,54.8,136.3,54.8,136.2,54.8L136.2,54.8L136.2,54.8z"/>
	</g>
	<g>
		<path class="st7" d="M136.1,54.8C136.2,54.8,136.2,54.8,136.1,54.8c0.1,0,0.1,0,0.1,0h0.1v0C136.3,54.8,136.2,54.8,136.1,54.8z"/>
	</g>
	<g>
		<path class="st7" d="M136.1,54.8C136.2,54.8,136.2,54.8,136.1,54.8c0.1,0,0.1,0,0.1,0h0.1v0C136.3,54.8,136.2,54.8,136.1,54.8z"/>
	</g>
</g>
<g>
	<g>
		<path class="st6" d="M108.5,83.6L108.5,83.6l0.1,0c0.1,0,0.2,0,0.2,0C108.7,83.6,108.6,83.6,108.5,83.6z"/>
	</g>
	<g>
		<path class="st6" d="M111.9,80.2c0,0.1,0,0.1,0,0.2h0.1c0-0.1,0-0.1,0-0.2H111.9z"/>
	</g>
	<g>
		<path class="st6" d="M108.5,83.6L108.5,83.6l0.1,0c0.1,0,0.2,0,0.2,0C108.7,83.6,108.6,83.6,108.5,83.6z M112,80.2h-0.1
			c0,0.1,0,0.1,0,0.2h0.1C112,80.3,112,80.2,112,80.2z"/>
	</g>
	<g>
		<path class="st6" d="M82.6,80.6c-0.1,1.8,1.3,3.4,3.1,3.6c0.7,0.1,18.2,1.9,19.4,18.4c0,0.1,0,0.2,0,0.3c0,0.3,0,0.7,0,1.2
			c0,1.9,1.5,3.5,3.5,3.5c0.3,0,0.6,0,0.9-0.1c0,0,0,0,0,0c1.8-0.1,3.2-1.6,3.2-3.4v-1.7c0.9-16.4,18.3-18.6,19-18.6
			c1.2-0.1,2.2-0.9,2.7-1.9c0.3-0.5,0.4-1,0.5-1.6c0.1-1.8-1.3-3.4-3.1-3.6c-0.7-0.1-18.3-1.9-19.4-18.4c0-0.1,0-0.2,0-0.3
			c0-0.3,0-0.7,0-1.2c0-1.9-1.5-3.5-3.5-3.5c-0.1,0-0.2,0-0.3,0c-0.1,0-0.2,0-0.3,0c-1.9,0-3.5,1.5-3.5,3.5v1.7
			c-0.9,16.4-18.3,18.6-19,18.6c-1.4,0.2-2.6,1.2-3,2.5C82.7,79.8,82.6,80.2,82.6,80.6z M112,80.4L112,80.4
			c-0.1-0.1-0.1-0.1-0.1-0.2h0.1C112,80.2,112,80.3,112,80.4z M108.5,83.6L108.5,83.6c0.1,0,0.2,0,0.3,0c-0.1,0-0.2,0-0.2,0H108.5z"
			/>
		<path class="st6" d="M108.5,83.6L108.5,83.6l0.1,0c0.1,0,0.2,0,0.2,0C108.7,83.6,108.6,83.6,108.5,83.6z M112,80.2h-0.1
			c0,0.1,0,0.1,0,0.2h0.1C112,80.3,112,80.2,112,80.2z"/>
	</g>
	<g>
		<path class="st7" d="M136.1,54.8C136.2,54.8,136.2,54.8,136.1,54.8c0.1,0,0.1,0,0.1,0h0.1v0C136.3,54.8,136.2,54.8,136.1,54.8z"/>
		<path class="st7" d="M123.8,53.4c0,0.2,0.1,0.5,0.2,0.7c0,0,0,0,0,0c0.2,0.6,0.7,1,1.4,1c0.3,0,8.6,0.9,9.1,8.6v0.7
			c0,0.9,0.7,1.6,1.6,1.6c0,0,0.1,0,0.2,0c0,0,0.1,0,0.1,0c0.9,0,1.6-0.7,1.6-1.6v-0.8c0.2-3.2,1.7-5.6,4.6-7.3
			c2.2-1.2,4.4-1.5,4.4-1.5c0.9-0.1,1.5-0.9,1.5-1.7c0-0.2-0.1-0.5-0.2-0.7c0,0,0,0,0,0c-0.2-0.6-0.7-1-1.4-1
			c-0.3,0-8.6-0.9-9.1-8.6v-0.7c0-0.9-0.7-1.6-1.6-1.6c0,0-0.1,0-0.2,0c0,0-0.1,0-0.1,0c-0.9,0-1.6,0.7-1.6,1.6v0.2c0,0,0,0,0,0v0.6
			c-0.2,3.2-1.7,5.6-4.6,7.3c-2.2,1.2-4.4,1.5-4.4,1.5C124.4,51.8,123.7,52.5,123.8,53.4z M136.2,54.8
			C136.2,54.8,136.2,54.8,136.2,54.8c-0.1,0-0.1,0-0.1,0C136.2,54.8,136.3,54.8,136.2,54.8L136.2,54.8L136.2,54.8z"/>
	</g>
	<g>
		<path class="st7" d="M136.1,54.8C136.2,54.8,136.2,54.8,136.1,54.8c0.1,0,0.1,0,0.1,0h0.1v0C136.3,54.8,136.2,54.8,136.1,54.8z"/>
	</g>
	<g>
		<path class="st7" d="M136.1,54.8C136.2,54.8,136.2,54.8,136.1,54.8c0.1,0,0.1,0,0.1,0h0.1v0C136.3,54.8,136.2,54.8,136.1,54.8z"/>
	</g>
</g>
</svg>
