<?xml version="1.0" encoding="utf-8"?>
<!-- Generator: Adobe Illustrator 21.0.2, SVG Export Plug-In . SVG Version: 6.00 Build 0)  -->
<svg version="1.1" id="Layer_1" xmlns="http://www.w3.org/2000/svg" xmlns:xlink="http://www.w3.org/1999/xlink" x="0px" y="0px"
	 viewBox="0 0 500 500" style="enable-background:new 0 0 500 500;" xml:space="preserve">
<style type="text/css">
	.st0{opacity:0.4;}
	.st1{fill:#FFFFFF;}
	.st2{fill:#DAC3DF;}
	.st3{fill:#7C7A92;}
	.st4{fill:#231F20;}
</style>
<g class="st0">
	<rect x="59.6" y="59.6" class="st1" width="380.9" height="380.9"/>
</g>
<g>
	<path class="st2" d="M190.1,379.1c0-54.9,27.7-99.4,61.9-99.4s61.9,44.5,61.9,99.4"/>
	<ellipse class="st1" cx="252" cy="219.9" rx="61.9" ry="78.4"/>
	<path class="st3" d="M200.2,190.5h61.4l5.3-21.9l7,21.9h26.3c0,0,16.7,48.2,4.4,69.3c-12.3,21.1,4.7,29,17.3,29
		c12.5,0,34.5-0.9,34.5-21.9s-3.5-140.4-90.4-145.6c-86.8-5.3-98.2,71.9-98.2,93s-30.7,37.7-22.8,57c7.9,19.3,42.1,15.8,42.1,6.6
		c0-9.2,11.4-14.5,11.4-28.5S200.2,190.5,200.2,190.5z"/>
	<path class="st4" d="M225.3,254.6h51.4C276.7,254.6,254.8,313.9,225.3,254.6z"/>
	<g>
		<path class="st4" d="M212.6,219.9c1-2.6,2.9-4.8,5.3-6.4c2.4-1.6,5.3-2.6,8.4-2.6c0.8,0,1.5,0.1,2.3,0.2c0.7,0.2,1.5,0.3,2.2,0.5
			c1.4,0.5,2.8,1.1,3.9,2c2.4,1.7,4.2,3.8,5.3,6.4c-2.6-1.1-4.9-2.2-7.1-2.9c-0.6-0.2-1.1-0.3-1.7-0.5c-0.6-0.1-1.1-0.3-1.6-0.4
			c-1.1-0.2-2.2-0.3-3.3-0.3c-2.2,0-4.3,0.4-6.6,1.1C217.4,217.7,215.1,218.7,212.6,219.9z"/>
	</g>
	<g>
		<path class="st4" d="M263,219.9c1-2.6,2.9-4.8,5.3-6.4c2.4-1.6,5.3-2.6,8.4-2.6c0.8,0,1.5,0.1,2.3,0.2c0.7,0.2,1.5,0.3,2.2,0.5
			c1.4,0.5,2.8,1.1,3.9,2c2.4,1.7,4.2,3.8,5.3,6.4c-2.6-1.1-4.9-2.2-7.1-2.9c-0.6-0.2-1.1-0.3-1.7-0.5c-0.6-0.1-1.1-0.3-1.6-0.4
			c-1.1-0.2-2.2-0.3-3.3-0.3c-2.2,0-4.3,0.4-6.6,1.1C267.8,217.7,265.5,218.7,263,219.9z"/>
	</g>
</g>
</svg>
