<?xml version="1.0" encoding="utf-8"?>
<!-- Generator: Adobe Illustrator 21.0.2, SVG Export Plug-In . SVG Version: 6.00 Build 0)  -->
<svg version="1.1" id="Layer_1" xmlns="http://www.w3.org/2000/svg" xmlns:xlink="http://www.w3.org/1999/xlink" x="0px" y="0px"
	 viewBox="0 0 500 500" style="enable-background:new 0 0 500 500;" xml:space="preserve">
<style type="text/css">
	.st0{opacity:0.4;}
	.st1{fill:#FFFFFF;}
	.st2{fill:#231F20;}
	.st3{fill:#58595B;}
</style>
<g class="st0">
	<rect x="59.6" y="59.6" class="st1" width="380.9" height="380.9"/>
</g>
<g>
	<path class="st2" d="M190.1,379.1c0-54.9,27.7-99.4,61.9-99.4s61.9,44.5,61.9,99.4"/>
	<ellipse class="st1" cx="252" cy="219.9" rx="61.9" ry="78.4"/>
	<path class="st2" d="M225.3,254.6h51.4C276.7,254.6,254.8,313.9,225.3,254.6z"/>
	<g>
		<path class="st2" d="M212.6,219.9c1-2.6,2.9-4.8,5.3-6.4c2.4-1.6,5.3-2.6,8.4-2.6c0.8,0,1.5,0.1,2.3,0.2c0.7,0.2,1.5,0.3,2.2,0.5
			c1.4,0.5,2.8,1.1,3.9,2c2.4,1.7,4.2,3.8,5.3,6.4c-2.6-1.1-4.9-2.2-7.1-2.9c-0.6-0.2-1.1-0.3-1.7-0.5c-0.6-0.1-1.1-0.3-1.6-0.4
			c-1.1-0.2-2.2-0.3-3.3-0.3c-2.2,0-4.3,0.4-6.6,1.1C217.4,217.7,215.1,218.7,212.6,219.9z"/>
	</g>
	<g>
		<path class="st2" d="M263,219.9c1-2.6,2.9-4.8,5.3-6.4c2.4-1.6,5.3-2.6,8.4-2.6c0.8,0,1.5,0.1,2.3,0.2c0.7,0.2,1.5,0.3,2.2,0.5
			c1.4,0.5,2.8,1.1,3.9,2c2.4,1.7,4.2,3.8,5.3,6.4c-2.6-1.1-4.9-2.2-7.1-2.9c-0.6-0.2-1.1-0.3-1.7-0.5c-0.6-0.1-1.1-0.3-1.6-0.4
			c-1.1-0.2-2.2-0.3-3.3-0.3c-2.2,0-4.3,0.4-6.6,1.1C267.8,217.7,265.5,218.7,263,219.9z"/>
	</g>
</g>
<path class="st3" d="M202.9,171.4l51.7,34.2l-1-28.1l39.4,31.6l-4.1-25.4l35.1,47.4c0,0,27.2-118.4-91.2-102.6
	c0,0-78.9,11.4-48.2,102.6L202.9,171.4z"/>
</svg>
