<?xml version="1.0" encoding="utf-8"?>
<!-- Generator: Adobe Illustrator 21.0.2, SVG Export Plug-In . SVG Version: 6.00 Build 0)  -->
<svg version="1.1" id="Layer_1" xmlns="http://www.w3.org/2000/svg" xmlns:xlink="http://www.w3.org/1999/xlink" x="0px" y="0px"
	 viewBox="0 0 500 500" style="enable-background:new 0 0 500 500;" xml:space="preserve">
<style type="text/css">
	.st0{opacity:0.4;}
	.st1{fill:#FFFFFF;}
	.st2{fill:#A7A9AC;stroke:#A7A9AC;stroke-width:2.1296;stroke-miterlimit:10;}
	.st3{fill:#58595B;stroke:#58595B;stroke-width:2.1296;stroke-miterlimit:10;}
	.st4{fill:#7C7A92;}
</style>
<g class="st0">
	<rect x="61.4" y="41.3" class="st1" width="380.9" height="380.9"/>
</g>
<g>
	<path class="st2" d="M299.9,105.5l73.1,73.1l-28.4,68.2l-138,58.9l-12.7-6.8l64.4-66.7c0,0,37.6-6.8,17.8-26.6
		c-19.8-19.8-26.9,20-26.9,20l-62.8,62.8l-8.2-14.1L232,146.4L299.9,105.5z"/>
	<path class="st3" d="M370.7,163.7l-57.3-57.3c-4.9-4.9-4.9-13,0-17.8l26.2-26.2c5-5,13.3-5,18.3,0l57,57c4.9,4.9,4.9,13,0,17.8
		l-26.5,26.5C383.5,168.5,375.5,168.5,370.7,163.7z"/>
	<g>
		<path class="st4" d="M189.2,293.9c-3.4,1.7-6.7,3.2-9.9,4.7c-3.2,1.6-6.4,3.1-9.4,4.7c-6.1,3.2-12,6.6-17.2,10.2
			c-5.3,3.6-9.9,7.7-13.6,12c-1.8,2.2-3.5,4.5-4.7,6.8c-1.3,2.4-2.3,4.7-3.1,7.3c-0.8,2.6-1.3,5.2-1.6,7.9l-0.1,1v1.1
			c0,0.7-0.1,1.4-0.1,2.1l0.1,5c0.1,2.1,0,4.2-0.1,6.3c-0.2,2.1-0.5,4.2-0.9,6.3c-0.8,4.2-2.2,8.3-4.2,12.2
			c-1.9,3.8-4.5,7.4-7.4,10.4s-6.3,5.5-9.8,7.5c-3.6,1.9-7.2,3.4-10.9,4.2c-3.7,0.9-7.5,1.4-11.3,1c6.2-4.1,11.5-8.6,15.5-13.6
			s6.7-10.3,7.9-15.8c0.6-2.7,1-5.6,1-8.4c0.1-1.4,0-2.8-0.1-4.3c-0.2-1.5-0.2-2.9-0.5-4.4l-0.2-1.1l-0.2-1.4l-0.4-3.1
			c-0.1-1.1-0.1-2.1-0.1-3.2v-1.6l0.1-1.6c0.1-1.1,0.1-2.2,0.2-3.3l0.5-3.3c0.5-2.2,0.8-4.3,1.6-6.5c1.3-4.2,3.2-8.3,5.6-12
			s5.2-7,8.3-9.9c6.2-5.8,13.3-9.9,20.5-12.9c7.3-2.9,14.8-4.6,22.2-5.3c3.7-0.4,7.5-0.5,11.1-0.5
			C181.8,292.9,185.4,293.2,189.2,293.9z"/>
	</g>
</g>
</svg>
