<?xml version="1.0" encoding="utf-8"?>
<!-- Generator: Adobe Illustrator 21.0.2, SVG Export Plug-In . SVG Version: 6.00 Build 0)  -->
<svg version="1.1" id="Layer_1" xmlns="http://www.w3.org/2000/svg" xmlns:xlink="http://www.w3.org/1999/xlink" x="0px" y="0px"
	 viewBox="0 0 100 32.8" style="enable-background:new 0 0 100 32.8;" xml:space="preserve">
<style type="text/css">
	.st0{fill:#FBDC7D;}
	.st1{fill:#F4C96A;}
	.st2{fill:#F7C240;}
	.st3{fill:#FFFFFF;}
</style>
<g>
	<g>
		<path class="st0" d="M39.9-21.1c0,0.4,0,0.7,0,1.1v-0.4V-21.1z"/>
		<path class="st0" d="M39.9-20.3v0.4c0-0.4,0-0.7,0-1.1V-20.3z"/>
	</g>
	<g>
		<path class="st1" d="M24.4,12c-0.3,0-8.1-0.9-8.6-8.3c0-0.2,0-0.4,0-0.7c0-0.9-0.7-1.5-1.5-1.5c0,0-0.1,0-0.1,0h0c0,0-0.1,0-0.1,0
			c-0.9,0-1.5,0.7-1.5,1.5v0.1c0,0,0,0.1,0,0.1v0.1c0,0.1,0,0.2,0,0.3C12,11,4.2,11.9,3.8,11.9C3,12,2.4,12.7,2.4,13.6
			c0,0.1,0,0.1,0,0.2c0,0.8,0.6,1.4,1.4,1.4c0.3,0,8.1,0.9,8.6,8.3c0,0.2,0,0.4,0,0.7c0,0.9,0.7,1.5,1.5,1.5c0,0,0.1,0,0.1,0h0
			c0,0,0.1,0,0.1,0c0.9,0,1.5-0.7,1.5-1.5c0-0.3,0-0.5,0-0.7c0.4-7.4,8.2-8.2,8.6-8.3c0.8-0.1,1.4-0.8,1.4-1.6l0,0
			C25.9,12.8,25.2,12.1,24.4,12z M14,3.4V3.3V3C14,3.2,14,3.3,14,3.4z"/>
		<path class="st0" d="M14,3.3v0.1c0-0.1,0-0.3,0-0.4V3.3z"/>
	</g>
	<g>
		<path class="st2" d="M32,25.6c0,0.4-0.3,0.7-0.6,0.8c-0.1,0-3.8,0.4-4.1,3.9c0,0.1,0,0.2,0,0.3c0,0.4-0.3,0.7-0.7,0.7
			c0,0,0,0-0.1,0h0h0c-0.4,0-0.7-0.3-0.7-0.7c0-0.1,0-0.2,0-0.3c-0.1-1.5-0.8-2.6-2.1-3.3c-1-0.5-2-0.6-2-0.6
			c-0.4,0-0.6-0.4-0.6-0.7v0c0-0.4,0.3-0.7,0.6-0.8c0.1,0,3.8-0.4,4-3.9c0-0.1,0-0.2,0-0.3c0-0.4,0.3-0.7,0.7-0.7c0,0,0,0,0.1,0l0,0
			c0,0,0,0,0.1,0c0.4,0,0.7,0.3,0.7,0.7c0,0.1,0,0.2,0,0.3c0.2,3.5,3.9,3.9,4.1,3.9C31.7,24.8,32,25.1,32,25.6L32,25.6L32,25.6z"/>
	</g>
	<g>
		<path class="st3" d="M38.4,6.6c-2.9,0-4.6,2.5-4.6,6.9c0,4.4,1.5,6.9,4.2,6.9c0.9,0,1.8-0.2,2.4-0.5v-6.2h0.5v6.5
			c-0.8,0.4-1.9,0.7-3,0.7c-3,0-4.6-2.6-4.6-7.3c0-4.7,1.8-7.3,5-7.3c0.8,0,1.6,0.3,2.4,0.7v0.5C39.9,6.8,39.1,6.6,38.4,6.6z"/>
		<path class="st3" d="M44.9,5.3v13.8c0,0.9,0.2,1.2,0.7,1.2c0.2,0,0.4-0.1,0.5-0.1v0.4c-0.2,0.1-0.4,0.1-0.7,0.1
			c-0.7,0-1.1-0.5-1.1-1.5V5.3H44.9z"/>
		<path class="st3" d="M48.5,7.8V6.2H49v1.6H48.5z M48.5,10.1H49v10.4h-0.5V10.1z"/>
		<path class="st3" d="M63,13.5v7h-0.5v-7c0-2.2-0.8-3.1-2.1-3.1c-0.8,0-1.8,0.6-2.5,1.6c0.1,0.4,0.1,0.9,0.1,1.4v7h-0.5v-7
			c0-2.2-0.8-3.1-2.1-3.1c-0.8,0-1.7,0.5-2.4,1.5v8.6h-0.5V10.1h0.4v1.4h0c0.8-1,1.7-1.5,2.5-1.5c1.1,0,1.8,0.6,2.2,1.8
			c0.8-1.2,1.9-1.8,2.8-1.8C62.2,10,63,11.1,63,13.5z"/>
		<path class="st3" d="M77,13.5v7h-0.5v-7c0-2.2-0.8-3.1-2.1-3.1c-0.8,0-1.8,0.6-2.5,1.6c0.1,0.4,0.1,0.9,0.1,1.4v7h-0.5v-7
			c0-2.2-0.8-3.1-2.1-3.1c-0.8,0-1.7,0.5-2.4,1.5v8.6h-0.5V10.1h0.4v1.4h0c0.8-1,1.7-1.5,2.5-1.5c1.1,0,1.8,0.6,2.2,1.8
			c0.8-1.2,1.9-1.8,2.8-1.8C76.2,10,77,11.1,77,13.5z"/>
		<path class="st3" d="M85.8,15v0.4h-5.4c0,3.2,1.1,5,3.1,5c0.8,0,1.5-0.3,2.1-0.7v0.4c-0.6,0.4-1.4,0.7-2.2,0.7
			c-2.2,0-3.5-1.9-3.5-5.4c0-3.4,1.1-5.4,3.2-5.4C84.9,10,85.8,11.8,85.8,15z M80.4,14.9h5c0-2.9-0.8-4.5-2.3-4.5
			C81.4,10.4,80.5,12.1,80.4,14.9z"/>
		<path class="st3" d="M89.3,12.4v8.1h-0.5V10.1h0.4v1.8h0c0.8-1.2,1.8-2,2.6-2v0.5C91,10.4,90.2,11,89.3,12.4z"/>
	</g>
</g>
</svg>
