<?xml version="1.0" encoding="utf-8"?>
<!-- Generator: Adobe Illustrator 21.0.2, SVG Export Plug-In . SVG Version: 6.00 Build 0)  -->
<svg version="1.1" id="Layer_1" xmlns="http://www.w3.org/2000/svg" xmlns:xlink="http://www.w3.org/1999/xlink" x="0px" y="0px"
	 viewBox="0 0 432 152.3" style="enable-background:new 0 0 432 152.3;" xml:space="preserve">
<style type="text/css">
	.st0{fill:#FBDC7D;}
	.st1{fill:#F4C96C;}
	.st2{fill:#F7C240;}
	.st3{fill:#FFFFFF;}
</style>
<g>
	<g>
		<path class="st0" d="M182.4-94.7c0,1.8,0,3.2,0,5.1v-1.8V-94.7z"/>
		<path class="st0" d="M182.4-91v1.8c0-1.8,0-3.2,0-5.1V-91z"/>
	</g>
	<g>
		<path class="st1" d="M111.1,57.8c-1.5-0.2-37.4-4.3-39.4-38.1c0-1-0.2-2-0.2-3.1c0-4-3.1-7.1-7.1-7.1c-0.2,0-0.3,0-0.7,0h-0.2
			c-0.2,0-0.3,0-0.7,0c-4,0-7.1,3.1-7.1,7.1v0.5c0,0.2,0,0.5,0,0.7v0.7c0,0.3,0,0.8,0,1.2c-2,33.9-37.9,38.1-39.4,38.1
			c-3.8,0.3-6.6,3.6-6.5,7.5c0,0.3,0,0.5,0.2,0.8c0.2,3.5,2.8,6.3,6.3,6.6c1.5,0.2,37.4,4.3,39.4,38.1c0,1,0.2,2,0.2,3.1
			c0,4,3.1,7.1,7.1,7.1c0.2,0,0.3,0,0.5,0h0.2c0.2,0,0.3,0,0.5,0c4,0,7.1-3.1,7.1-7.1c0-1.2,0-2.2,0.2-3.1
			c2-33.9,37.9-37.9,39.4-38.1c3.8-0.3,6.6-3.6,6.5-7.5l0,0C117.7,61.6,114.9,58.3,111.1,57.8z M63.2,18.4v-0.7v-1.3
			C63.2,17.2,63.2,17.9,63.2,18.4z"/>
		<path class="st0" d="M63.2,17.9v0.7c0-0.7,0-1.2,0-1.8V17.9z"/>
	</g>
	<g>
		<path class="st2" d="M146,120.4c0,1.8-1.3,3.3-3,3.5c-0.7,0-17.7,2-18.7,18c0,0.5,0,1,0,1.5c0,1.8-1.5,3.3-3.3,3.3
			c0,0-0.2,0-0.3,0h-0.2h-0.2c-1.8,0-3.3-1.5-3.3-3.3c0-0.5,0-1,0-1.5c-0.3-6.8-3.6-11.8-9.6-15.1c-4.6-2.5-9.1-3-9.1-3
			c-1.7-0.2-3-1.7-3-3.3v-0.2c-0.2-1.8,1.3-3.3,3-3.5c0.7,0,17.7-2,18.5-18c0-0.5,0-1,0-1.5c0-1.8,1.5-3.3,3.3-3.3
			c0.2,0,0.2,0,0.3,0l0,0c0.2,0,0.2,0,0.3,0c1.8,0,3.3,1.5,3.3,3.3c0,0.5,0,1,0,1.5c1,16.1,17.9,18,18.7,18
			C144.7,116.9,146,118.4,146,120.4L146,120.4L146,120.4z"/>
	</g>
	<g>
		<path class="st3" d="M175.3,33c-13.5,0-21.1,11.4-21.1,31.6c0,20.3,7.1,31.8,19.4,31.8c4.2,0,8.2-0.9,11.1-2.3V65.5h2.2v29.9
			c-3.8,1.9-8.7,3-13.6,3c-13.7,0-21.4-12.1-21.4-33.6c0-21.6,8.3-33.8,22.9-33.8c3.7,0,7.5,1.2,10.9,3v2.1
			C182.4,34,178.6,33,175.3,33z"/>
		<path class="st3" d="M205.2,27v63.7c0,4,1,5.5,3.4,5.5c0.8,0,1.6-0.3,2.3-0.7v1.8c-1,0.5-2,0.7-3,0.7c-3.3,0-4.9-2.1-4.9-6.9V27
			H205.2z"/>
		<path class="st3" d="M222,38.8v-7.3h2.2v7.3H222z M222,49.4h2.2v47.9H222V49.4z"/>
		<path class="st3" d="M288.8,64.9v32.4h-2.1V65.2c0-10-3.5-14.5-9.5-14.5c-3.8,0-8.3,2.7-11.7,7.5c0.4,1.9,0.6,4.2,0.6,6.7v32.4
			H264V65.2c0-10-3.5-14.5-9.5-14.5c-3.5,0-7.6,2.5-11,6.8v39.8h-2.2V49.4h2v6.3h0.1c3.5-4.4,7.9-7,11.7-7c5.1,0,8.5,2.6,10.1,8.1
			c3.9-5.4,8.6-8.1,12.7-8.1C285,48.7,288.8,54,288.8,64.9z"/>
		<path class="st3" d="M353.2,64.9v32.4h-2.1V65.2c0-10-3.5-14.5-9.5-14.5c-3.8,0-8.3,2.7-11.7,7.5c0.4,1.9,0.6,4.2,0.6,6.7v32.4
			h-2.1V65.2c0-10-3.5-14.5-9.5-14.5c-3.5,0-7.6,2.5-11,6.8v39.8h-2.2V49.4h2v6.3h0.1c3.5-4.4,7.9-7,11.7-7c5.1,0,8.5,2.6,10.1,8.1
			c3.9-5.4,8.6-8.1,12.7-8.1C349.4,48.7,353.2,54,353.2,64.9z"/>
		<path class="st3" d="M394,71.6v1.7h-25c0,14.8,5,23.2,14.1,23.2c3.5,0,7.1-1.2,9.9-3.2v1.8c-2.8,1.9-6.3,3.2-10.2,3.2
			c-10.3,0-16-8.9-16-24.8c0-15.9,5.2-24.8,14.7-24.8C389.4,48.7,394,57,394,71.6z M369,71.5h22.8c0-13.3-3.7-20.8-10.4-20.8
			C373.6,50.7,369.2,58.2,369,71.5z"/>
		<path class="st3" d="M409.8,59.8v37.5h-2.2V49.4h2v8.2h0.1c3.8-5.7,8.1-9.1,12.1-9.1v2.2C417.9,50.8,414.2,53.5,409.8,59.8z"/>
	</g>
</g>
</svg>
