<?xml version="1.0" encoding="utf-8"?>
<!-- Generator: Adobe Illustrator 21.0.2, SVG Export Plug-In . SVG Version: 6.00 Build 0)  -->
<svg version="1.1" id="Layer_1" xmlns="http://www.w3.org/2000/svg" xmlns:xlink="http://www.w3.org/1999/xlink" x="0px" y="0px"
	 viewBox="0 0 500 500" style="enable-background:new 0 0 500 500;" xml:space="preserve">
<style type="text/css">
	.st0{fill:#FCDD7C;stroke:#FCDD7C;stroke-width:37.541;stroke-linecap:round;stroke-linejoin:round;stroke-miterlimit:10;}
	.st1{fill:#F8C340;stroke:#F8C340;stroke-width:17.7515;stroke-linecap:round;stroke-linejoin:round;stroke-miterlimit:10;}
</style>
<path class="st0" d="M194.8,77.3c0,3.3-0.1,6.4-0.3,9.5C188,193.8,73.5,205.1,73.5,205.1h121.2V80.6"/>
<path class="st0" d="M198.3,334.8c0-3.3,0.1-6.4,0.3-9.5c6.4-107,120.9-118.2,120.9-118.2H198.3v124.5"/>
<path class="st0" d="M198.3,77.3c0,3.3,0.1,6.4,0.3,9.5c6.4,107,120.9,118.2,120.9,118.2H198.3V80.6"/>
<path class="st0" d="M194.9,334.8c0-3.3-0.1-6.4-0.3-9.5c-6.4-107-120.9-118.2-120.9-118.2h121.2v124.5"/>
<path class="st1" d="M345.5,290.3c0,1.5,0,3-0.1,4.5c-3,50.6-57.2,55.9-57.2,55.9h57.3v-58.9"/>
<path class="st1" d="M347.2,412.1c0-1.5,0-3,0.1-4.5c3-50.6,57.2-55.9,57.2-55.9h-57.3v58.9"/>
<path class="st1" d="M347.2,290.3c0,1.5,0,3,0.1,4.5c3,50.6,57.2,55.9,57.2,55.9h-57.3v-58.9"/>
<path class="st1" d="M345.6,412.1c0-1.5,0-3-0.1-4.5c-3-50.6-57.2-55.9-57.2-55.9h57.3v58.9"/>
</svg>
