<?xml version="1.0" encoding="utf-8"?>
<!-- Generator: Adobe Illustrator 21.0.2, SVG Export Plug-In . SVG Version: 6.00 Build 0)  -->
<svg version="1.1" id="Layer_1" xmlns="http://www.w3.org/2000/svg" xmlns:xlink="http://www.w3.org/1999/xlink" x="0px" y="0px"
	 viewBox="0 0 300 100" style="enable-background:new 0 0 300 100;" xml:space="preserve">
<style type="text/css">
	.st0{fill:#F4C96C;}
	.st1{fill:#FBDC7D;}
	.st2{fill:#F7C240;}
	.st3{fill:#FFFFFF;}
</style>
<g>
	<path class="st0" d="M51.4,34.4c-0.7-0.1-17.7-2-18.6-18c0-0.5-0.1-0.9-0.1-1.5c0-1.9-1.5-3.4-3.4-3.4c-0.1,0-0.2,0-0.3,0H29
		c-0.1,0-0.2,0-0.3,0c-1.9,0-3.4,1.5-3.4,3.4v0.2c0,0.1,0,0.2,0,0.3v0.3c0,0.2,0,0.4,0,0.5c-0.9,16-17.9,18-18.6,18
		c-1.8,0.2-3.1,1.7-3.1,3.5c0,0.2,0,0.2,0.1,0.4c0.1,1.6,1.3,3,3,3.1c0.7,0.1,17.7,2,18.6,18c0,0.5,0.1,0.9,0.1,1.5
		c0,1.9,1.5,3.4,3.4,3.4c0.1,0,0.2,0,0.2,0h0.1c0.1,0,0.2,0,0.2,0c1.9,0,3.4-1.5,3.4-3.4c0-0.5,0-1,0.1-1.5
		c0.9-16,17.9-17.9,18.6-18c1.8-0.2,3.1-1.7,3.1-3.5l0,0C54.6,36.2,53.2,34.6,51.4,34.4z M28.8,15.8v-0.3v-0.6
		C28.8,15.2,28.8,15.5,28.8,15.8z"/>
	<path class="st1" d="M28.8,15.5v0.3c0-0.3,0-0.5,0-0.9V15.5z"/>
</g>
<g>
	<path class="st2" d="M67.9,60.7c0,0.9-0.6,1.6-1.4,1.6c-0.3,0-8.4,0.9-8.8,8.5c0,0.2,0,0.5,0,0.7c0,0.9-0.7,1.6-1.6,1.6
		c0,0-0.1,0-0.2,0h-0.1h-0.1c-0.9,0-1.6-0.7-1.6-1.6c0-0.2,0-0.5,0-0.7c-0.2-3.2-1.7-5.6-4.5-7.1c-2.2-1.2-4.3-1.4-4.3-1.4
		c-0.8-0.1-1.4-0.8-1.4-1.6v-0.1c-0.1-0.9,0.6-1.6,1.4-1.6c0.3,0,8.4-0.9,8.8-8.5c0-0.2,0-0.5,0-0.7c0-0.9,0.7-1.6,1.6-1.6
		c0.1,0,0.1,0,0.2,0l0,0c0.1,0,0.1,0,0.2,0c0.9,0,1.6,0.7,1.6,1.6c0,0.2,0,0.5,0,0.7c0.5,7.6,8.5,8.5,8.8,8.5
		C67.3,59.1,67.9,59.8,67.9,60.7L67.9,60.7L67.9,60.7z"/>
</g>
<g>
	<path class="st3" d="M233.8,51.9h-1.2v3.2h-0.8v-7.9h2c1.7,0,2.8,0.6,2.8,2.3C236.6,51.1,235.5,51.9,233.8,51.9z M233.8,47.9h-1.1
		v3.3h1.2c1.2,0,2-0.6,2-1.7C235.8,48.3,235,47.9,233.8,47.9z"/>
	<path class="st3" d="M242.1,51.4c0-0.9-0.5-1.5-1.5-1.5c-0.6,0-1.2,0.2-1.7,0.7v4.6h-0.8v-8.5h0.8V50c0.6-0.5,1.3-0.8,2-0.8
		c1.3,0,2,0.7,2,2.1v3.9h-0.8V51.4z"/>
	<path class="st3" d="M247.2,55.3c-1.6,0-2.8-1.3-2.8-3c0-1.8,1.1-3.1,2.8-3.1c1.7,0,2.8,1.2,2.8,3.1
		C250,54.1,248.8,55.3,247.2,55.3z M247.2,49.8c-1.2,0-2,1-2,2.4c0,1.5,0.8,2.5,2,2.5c1.2,0,2-1,2-2.4
		C249.2,50.8,248.4,49.8,247.2,49.8z"/>
	<path class="st3" d="M253.7,54.7c0.3,0,0.7-0.1,0.9-0.1v0.6c-0.2,0.1-0.6,0.2-1.1,0.2c-0.8,0-1.6-0.4-1.6-1.6v-3.9h-1.1v-0.6h1.1
		v-1.6h0.8v1.6h1.9v0.6h-1.9v3.8C252.7,54.4,253.1,54.7,253.7,54.7z"/>
	<path class="st3" d="M258.3,55.3c-1.6,0-2.8-1.3-2.8-3c0-1.8,1.1-3.1,2.8-3.1c1.7,0,2.8,1.2,2.8,3.1
		C261.2,54.1,260,55.3,258.3,55.3z M258.4,49.8c-1.2,0-2,1-2,2.4c0,1.5,0.8,2.5,2,2.5c1.2,0,2-1,2-2.4
		C260.4,50.8,259.5,49.8,258.4,49.8z"/>
	<path class="st3" d="M266,47.3h4.4v0.7h-3.6v2.8h3.2v0.7h-3.2v3.1h3.7v0.7H266V47.3z"/>
	<path class="st3" d="M274.4,49.2c0.7,0,1.2,0.2,1.8,0.7h0v-3.3h0.8v8.5h-0.7v-0.7h0c-0.6,0.6-1.2,0.9-2,0.9c-1.4,0-2.4-1.1-2.4-2.9
		C271.9,50.4,272.9,49.2,274.4,49.2z M274.5,54.7c0.6,0,1.2-0.3,1.7-0.7v-3.5c-0.5-0.5-1-0.7-1.6-0.7c-1.1,0-1.8,1-1.8,2.5
		C272.7,53.8,273.4,54.7,274.5,54.7z"/>
	<path class="st3" d="M279,48.2v-1.1h0.8v1.1H279z M279,49.3h0.8v5.8H279V49.3z"/>
	<path class="st3" d="M283.8,54.7c0.3,0,0.7-0.1,0.9-0.1v0.6c-0.2,0.1-0.6,0.2-1.1,0.2c-0.8,0-1.6-0.4-1.6-1.6v-3.9H281v-0.6h1.1
		v-1.6h0.8v1.6h1.9v0.6h-1.9v3.8C282.9,54.4,283.2,54.7,283.8,54.7z"/>
	<path class="st3" d="M288.5,55.3c-1.6,0-2.8-1.3-2.8-3c0-1.8,1.1-3.1,2.8-3.1c1.7,0,2.8,1.2,2.8,3.1
		C291.3,54.1,290.1,55.3,288.5,55.3z M288.5,49.8c-1.2,0-2,1-2,2.4c0,1.5,0.8,2.5,2,2.5c1.2,0,2-1,2-2.4
		C290.5,50.8,289.7,49.8,288.5,49.8z"/>
	<path class="st3" d="M293.6,50.9v4.3h-0.8v-5.8h0.7v1h0c0.7-0.8,1.4-1.1,2.1-1.1v0.7C295,49.9,294.3,50.3,293.6,50.9z"/>
</g>
<g>
	<path class="st3" d="M82.9,29.5c-5.1,0-8.7,2.6-8.7,9.4c0,5.6,2.6,9.3,7.2,9.3c1.3,0,2.1,0,3-0.2V37.3h7.2v15.3
		c-3.2,1.6-7.1,2.3-11,2.3c-7.8,0-13.9-4.7-13.9-15.6c0-11,6.4-16.5,15.4-16.5c3.3,0,6,0.7,8.1,1.8v6.9
		C88.1,30.4,85.5,29.5,82.9,29.5z"/>
	<path class="st3" d="M103.1,21.4v26.5c0,1.1,0.9,1.2,1.9,1.2c0.3,0,0.9,0,1.7-0.2V54c-1.7,0.6-3.5,0.8-4.8,0.8c-4,0-5.7-2.1-5.7-5
		V21.4H103.1z"/>
	<path class="st3" d="M109.4,27.8v-6.4h7v6.4H109.4z M109.4,31.1h7v23.2h-7V31.1z"/>
	<path class="st3" d="M153.9,39.6v14.6h-7V39.7c0-1.9-0.7-3.2-2.8-3.2c-1.2,0-2.4,0.5-3.1,1.2v0.2v16.3h-7V39.7
		c0-2.1-0.8-3.2-2.7-3.2c-1.4,0-2.5,0.5-3.2,1.2v16.5h-7V31.1h6.5v2.8h0.1c1.8-2,4.1-3.3,6.8-3.3c2.9,0,4.9,1.4,5.8,3.4
		c2.2-2.3,4.3-3.4,7.1-3.4C151.9,30.5,153.9,33.4,153.9,39.6z"/>
	<path class="st3" d="M191.1,39.6v14.6h-7V39.7c0-1.9-0.7-3.2-2.8-3.2c-1.2,0-2.4,0.5-3.1,1.2v0.2v16.3h-7V39.7
		c0-2.1-0.8-3.2-2.7-3.2c-1.4,0-2.5,0.5-3.2,1.2v16.5h-7V31.1h6.5v2.8h0.1c1.8-2,4.1-3.3,6.8-3.3c2.9,0,4.9,1.4,5.8,3.4
		c2.2-2.3,4.3-3.4,7.1-3.4C189.1,30.5,191.1,33.4,191.1,39.6z"/>
	<path class="st3" d="M213.7,41.8v3.1h-12.1c0.1,3.1,2.1,4.2,5,4.2c2.5,0,4.5-0.8,6.4-1.6v5.7c-1.6,0.8-4.4,1.7-7.6,1.7
		c-5.9,0-11-3.6-11-12.3c0-6.9,3.5-12.1,10-12.1C210.7,30.5,213.7,35.1,213.7,41.8z M201.6,40h5.7c0-2-0.8-3.7-2.6-3.7
		C202.5,36.3,201.7,37.9,201.6,40z"/>
	<path class="st3" d="M224.6,39.9v14.3h-7V31.1h6.5v4.3h0.1c3-3.8,4.6-4.8,7.7-4.8v7.3C229.1,37.9,226.1,38.6,224.6,39.9z"/>
</g>
</svg>
