<?xml version="1.0" encoding="utf-8"?>
<!-- Generator: Adobe Illustrator 21.0.2, SVG Export Plug-In . SVG Version: 6.00 Build 0)  -->
<svg version="1.1" id="Layer_1" xmlns="http://www.w3.org/2000/svg" xmlns:xlink="http://www.w3.org/1999/xlink" x="0px" y="0px"
	 viewBox="0 0 100 100" style="enable-background:new 0 0 100 100;" xml:space="preserve">
<style type="text/css">
	.st0{fill:#FBDC7D;}
	.st1{fill:#F4C96A;}
	.st2{fill:#F7C240;}
</style>
<g>
	<path class="st0" d="M39.9,11.7c0,0.4,0,0.7,0,1.1v-0.4L39.9,11.7z"/>
	<path class="st0" d="M39.9,12.5v0.4c0-0.4,0-0.7,0-1.1L39.9,12.5z"/>
</g>
<g>
	<path class="st1" d="M68.8,36.6c-0.9-0.1-22.6-2.6-23.8-23c0-0.6-0.1-1.2-0.1-1.9c0-2.4-1.9-4.3-4.3-4.3c-0.1,0-0.2,0-0.4,0h-0.1
		c-0.1,0-0.2,0-0.4,0c-2.4,0-4.3,1.9-4.3,4.3V12c0,0.1,0,0.3,0,0.4v0.4c0,0.2,0,0.5,0,0.7c-1.2,20.5-22.9,23-23.8,23
		c-2.3,0.2-4,2.2-3.9,4.5c0,0.2,0,0.3,0.1,0.5c0.1,2.1,1.7,3.8,3.8,4c0.9,0.1,22.6,2.6,23.8,23c0,0.6,0.1,1.2,0.1,1.9
		c0,2.4,1.9,4.3,4.3,4.3c0.1,0,0.2,0,0.3,0h0.1c0.1,0,0.2,0,0.3,0c2.4,0,4.3-1.9,4.3-4.3c0-0.7,0-1.3,0.1-1.9
		c1.2-20.5,22.9-22.9,23.8-23c2.3-0.2,4-2.2,3.9-4.5v0C72.8,38.9,71.1,36.9,68.8,36.6z M39.9,12.8v-0.4l0-0.8
		C39.9,12.1,39.9,12.5,39.9,12.8z"/>
	<path class="st0" d="M39.9,12.5v0.4c0-0.4,0-0.7,0-1.1L39.9,12.5z"/>
</g>
<g>
	<path class="st2" d="M89.9,74.4c0,1.1-0.8,2-1.8,2.1c-0.4,0-10.7,1.2-11.3,10.9c0,0.3,0,0.6,0,0.9c0,1.1-0.9,2-2,2c0,0-0.1,0-0.2,0
		h-0.1c0,0-0.1,0-0.1,0c-1.1,0-2-0.9-2-2c0-0.3,0-0.6,0-0.9c-0.2-4.1-2.2-7.1-5.8-9.1c-2.8-1.5-5.5-1.8-5.5-1.8c-1-0.1-1.8-1-1.8-2
		c0,0,0-0.1,0-0.1c-0.1-1.1,0.8-2,1.8-2.1c0.4,0,10.7-1.2,11.2-10.9c0-0.3,0-0.6,0-0.9c0-1.1,0.9-2,2-2c0.1,0,0.1,0,0.2,0h0
		c0.1,0,0.1,0,0.2,0c1.1,0,2,0.9,2,2c0,0.3,0,0.6,0,0.9c0.6,9.7,10.8,10.9,11.3,10.9C89.1,72.3,89.9,73.2,89.9,74.4L89.9,74.4
		C89.9,74.4,89.9,74.4,89.9,74.4z"/>
</g>
</svg>
