<?xml version="1.0" encoding="utf-8"?>
<!-- Generator: Adobe Illustrator 21.0.2, SVG Export Plug-In . SVG Version: 6.00 Build 0)  -->
<svg version="1.1" id="Layer_1" xmlns="http://www.w3.org/2000/svg" xmlns:xlink="http://www.w3.org/1999/xlink" x="0px" y="0px"
	 viewBox="0 0 500 500" style="enable-background:new 0 0 500 500;" xml:space="preserve">
<style type="text/css">
	.st0{opacity:0.4;}
	.st1{fill:#FFFFFF;}
	.st2{fill:#DDDDDD;}
	.st3{fill:#7D7A92;}
	.st4{fill:#BCBCBB;}
	.st5{fill:url(#SVGID_1_);}
	.st6{fill:url(#SVGID_2_);}
	.st7{fill:url(#SVGID_3_);}
	.st8{fill:#FFFFFF;stroke:#FFFFFF;stroke-width:0.2236;stroke-miterlimit:10;}
	.st9{fill:#EAE1F0;}
	.st10{opacity:0.3;}
	.st11{fill:#231F20;}
	.st12{fill:none;stroke:#231F20;stroke-width:0.1641;stroke-miterlimit:10;}
	.st13{fill:#231F20;stroke:#231F20;stroke-width:0.1423;stroke-miterlimit:10;}
	.st14{fill:#424143;}
	.st15{fill:#565656;}
	.st16{opacity:0.46;}
	.st17{fill:none;stroke:#FFFFFF;stroke-width:0.1641;stroke-miterlimit:10;}
	.st18{fill:#747578;stroke:#FFFFFF;stroke-width:0.1423;stroke-miterlimit:10;}
	.st19{fill:url(#SVGID_4_);}
	.st20{fill:#FADB7C;}
	.st21{fill:#F6C13E;}
	.st22{fill:#8B1B54;}
	.st23{fill:#FFFFFF;stroke:#FFFFFF;stroke-miterlimit:10;}
	.st24{fill:#FFFFFF;stroke:#FFFFFF;stroke-width:9.728775e-02;stroke-miterlimit:10;}
	.st25{fill:none;stroke:#231F20;stroke-width:7.140017e-02;stroke-miterlimit:10;}
	.st26{fill:#231F20;stroke:#231F20;stroke-width:6.188908e-02;stroke-miterlimit:10;}
	.st27{fill:none;stroke:#FFFFFF;stroke-width:7.140017e-02;stroke-miterlimit:10;}
	.st28{fill:#747578;stroke:#FFFFFF;stroke-width:6.188908e-02;stroke-miterlimit:10;}
	.st29{fill:url(#SVGID_5_);}
	.st30{fill:#FFFFFF;stroke:#FFFFFF;stroke-width:1.3938;stroke-miterlimit:10;}
	.st31{fill:#FFFFFF;stroke:#FFFFFF;stroke-width:0.1626;stroke-miterlimit:10;}
	.st32{fill:none;stroke:#231F20;stroke-width:0.1193;stroke-miterlimit:10;}
	.st33{fill:#231F20;stroke:#231F20;stroke-width:0.1034;stroke-miterlimit:10;}
	.st34{fill:none;stroke:#FFFFFF;stroke-width:0.1193;stroke-miterlimit:10;}
	.st35{fill:#747578;stroke:#FFFFFF;stroke-width:0.1034;stroke-miterlimit:10;}
	.st36{fill:url(#SVGID_6_);}
</style>
<g class="st0">
	<rect x="66.9" y="68.6" class="st1" width="380.9" height="380.9"/>
</g>
<g>
	<path class="st2" d="M271.3,244.6h-132v-135c0,0-1.5-10.1,11-10.1c12.5,0,112.2,0,112.2,0L271.3,244.6z"/>
	<path class="st2" d="M251.6,244.9h131.6v-135c0,0,1.5-10.1-10.9-10.1s-111.9,0-111.9,0L251.6,244.9z"/>
</g>
<rect x="149.5" y="109.6" class="st3" width="223.3" height="125.4"/>
<g>
	<path class="st4" d="M261,244.9H140.2v15c0,0-1.8,7.4,8.9,7.4s114.1,0,114.1,0L261,244.9z"/>
	<path class="st4" d="M256.4,244.9h125.7v15c0,0,1.8,7.4-9.3,7.4c-11.1,0-118.7,0-118.7,0L256.4,244.9z"/>
</g>
<linearGradient id="SVGID_1_" gradientUnits="userSpaceOnUse" x1="261.2496" y1="400.5664" x2="261.2496" y2="367.3094" gradientTransform="matrix(1 0 0 1 0 -100)">
	<stop  offset="7.050588e-02" style="stop-color:#888888"/>
	<stop  offset="0.1764" style="stop-color:#888888"/>
	<stop  offset="0.4934" style="stop-color:#EEEDEE"/>
	<stop  offset="0.6304" style="stop-color:#A7A6A6"/>
	<stop  offset="0.8113" style="stop-color:#4F4F4F"/>
	<stop  offset="0.9387" style="stop-color:#171717"/>
	<stop  offset="1" style="stop-color:#010101"/>
</linearGradient>
<path class="st5" d="M287.3,300.2l-25.2,0.4h-0.9h-0.9l-25.1-0.4c-8.9,0.1-14.9-1.1-7.6-4.5c6.8-3.2,8-7.9,8-7.9l1.8-20.6H285
	l1.8,20.6c0,0,1.2,4.7,8.1,7.9C302.2,299.1,296.3,300.3,287.3,300.2z"/>
<linearGradient id="SVGID_2_" gradientUnits="userSpaceOnUse" x1="261.1738" y1="400.5664" x2="262.0977" y2="400.5664" gradientTransform="matrix(1 0 0 1 0 -100)">
	<stop  offset="7.050588e-02" style="stop-color:#888888"/>
	<stop  offset="0.1764" style="stop-color:#888888"/>
	<stop  offset="0.4934" style="stop-color:#EEEDEE"/>
	<stop  offset="0.6304" style="stop-color:#A7A6A6"/>
	<stop  offset="0.8113" style="stop-color:#4F4F4F"/>
	<stop  offset="0.9387" style="stop-color:#171717"/>
	<stop  offset="1" style="stop-color:#010101"/>
</linearGradient>
<polygon class="st6" points="262.1,300.6 262.1,300.6 261.2,300.6 "/>
<linearGradient id="SVGID_3_" gradientUnits="userSpaceOnUse" x1="260.327" y1="400.5664" x2="261.1738" y2="400.5664" gradientTransform="matrix(1 0 0 1 0 -100)">
	<stop  offset="7.050588e-02" style="stop-color:#888888"/>
	<stop  offset="0.1764" style="stop-color:#888888"/>
	<stop  offset="0.4934" style="stop-color:#EEEDEE"/>
	<stop  offset="0.6304" style="stop-color:#A7A6A6"/>
	<stop  offset="0.8113" style="stop-color:#4F4F4F"/>
	<stop  offset="0.9387" style="stop-color:#171717"/>
	<stop  offset="1" style="stop-color:#010101"/>
</linearGradient>
<polygon class="st7" points="261.2,300.6 260.3,300.6 260.3,300.6 "/>
<path class="st1" d="M266.8,140.3"/>
<rect x="218.5" y="127.5" class="st8" width="83.5" height="89.6"/>
<rect x="225.5" y="133.2" class="st9" width="69.7" height="65.3"/>
<g>
	<g class="st10">
		<path class="st11" d="M276,153.3h-4.5c-0.8,0-1.5-0.7-1.5-1.5v-5.1c0-0.8,0.7-1.5,1.5-1.5h4.5c0.8,0,1.5,0.7,1.5,1.5v5.1
			C277.4,152.6,276.7,153.3,276,153.3z"/>
		<path class="st11" d="M280.8,186.2h-40.1c-2.1,0-3.8-1.7-3.8-3.8V154c0-2.1,1.7-3.8,3.8-3.8h40.1c2.1,0,3.8,1.7,3.8,3.8v28.4
			C284.7,184.6,283,186.2,280.8,186.2z"/>
		<circle class="st11" cx="260.9" cy="170.9" r="10.5"/>
		<circle class="st12" cx="260.9" cy="170.9" r="10.5"/>
		<circle class="st11" cx="261.5" cy="170.2" r="10.5"/>
		<circle class="st12" cx="261.5" cy="170.2" r="10.5"/>
		<circle class="st13" cx="261.5" cy="170.2" r="9.1"/>
		<circle class="st11" cx="260.9" cy="170.9" r="6.2"/>
		<circle class="st11" cx="261.5" cy="170.2" r="6.2"/>
		<path class="st11" d="M261.3,157.7h-9.1c-0.9,0-1.7-0.8-1.7-1.7v-6.5c0-0.9,0.8-1.7,1.7-1.7h9.1c0.9,0,1.7,0.8,1.7,1.7v6.5
			C263,156.9,262.3,157.7,261.3,157.7z"/>
		<path class="st11" d="M261.9,157.1h-9.1c-0.9,0-1.7-0.8-1.7-1.7v-6.5c0-0.9,0.8-1.7,1.7-1.7h9.1c0.9,0,1.7,0.8,1.7,1.7v6.5
			C263.6,156.3,262.8,157.1,261.9,157.1z"/>
		<path class="st11" d="M268.9,156.8H266c-0.6,0-1.1-0.5-1.1-1.1v-0.8c0-0.6,0.5-1.1,1.1-1.1h2.8c0.6,0,1.1,0.5,1.1,1.1v0.8
			C270,156.3,269.5,156.8,268.9,156.8z"/>
		<path class="st11" d="M269.4,156.3h-2.8c-0.6,0-1.1-0.5-1.1-1.1v-0.8c0-0.6,0.5-1.1,1.1-1.1h2.8c0.6,0,1.1,0.5,1.1,1.1v0.8
			C270.5,155.8,270,156.3,269.4,156.3z"/>
		<path class="st11" d="M275,156.8h-2.8c-0.6,0-1.1-0.5-1.1-1.1v-0.8c0-0.6,0.5-1.1,1.1-1.1h2.8c0.6,0,1.1,0.5,1.1,1.1v0.8
			C276.1,156.3,275.6,156.8,275,156.8z"/>
		<path class="st11" d="M275.6,156.3h-2.8c-0.6,0-1.1-0.5-1.1-1.1v-0.8c0-0.6,0.5-1.1,1.1-1.1h2.8c0.6,0,1.1,0.5,1.1,1.1v0.8
			C276.6,155.8,276.2,156.3,275.6,156.3z"/>
		<path class="st11" d="M281.3,156.8h-2.8c-0.6,0-1.1-0.5-1.1-1.1v-0.8c0-0.6,0.5-1.1,1.1-1.1h2.8c0.6,0,1.1,0.5,1.1,1.1v0.8
			C282.3,156.3,281.8,156.8,281.3,156.8z"/>
		<path class="st11" d="M281.7,156.3h-2.8c-0.6,0-1.1-0.5-1.1-1.1v-0.8c0-0.6,0.5-1.1,1.1-1.1h2.8c0.6,0,1.1,0.5,1.1,1.1v0.8
			C282.8,155.8,282.3,156.3,281.7,156.3z"/>
		<path class="st11" d="M278.2,147.5h-9c-0.7,0-1.2-0.5-1.2-1.2v-6.2c0-0.7,0.5-1.2,1.2-1.2h9c0.7,0,1.2,0.5,1.2,1.2v6.2
			C279.4,147,278.9,147.5,278.2,147.5z"/>
		<path class="st11" d="M277.5,146.6H270c-0.5,0-1-0.5-1-1v-4.8c0-0.5,0.5-1,1-1h7.5c0.5,0,1,0.5,1,1v4.8
			C278.5,146.1,278,146.6,277.5,146.6z"/>
	</g>
	<g>
		<g>
			<path class="st14" d="M275.5,153.8H271c-0.8,0-1.5-0.7-1.5-1.5v-5.1c0-0.8,0.7-1.5,1.5-1.5h4.5c0.8,0,1.5,0.7,1.5,1.5v5.1
				C277,153.1,276.3,153.8,275.5,153.8z"/>
			<g>
				<g>
					<path class="st15" d="M280.3,186.7h-40.1c-2.1,0-3.8-1.7-3.8-3.8v-28.4c0-2.1,1.7-3.8,3.8-3.8h40.1c2.1,0,3.8,1.7,3.8,3.8v28.4
						C284.2,185,282.4,186.7,280.3,186.7z"/>
				</g>
				<g>
					<g>
						<g class="st16">
							<circle class="st11" cx="260.4" cy="171.4" r="10.5"/>
							<circle class="st12" cx="260.4" cy="171.4" r="10.5"/>
						</g>
						<g>
							<circle class="st1" cx="261" cy="170.8" r="10.5"/>
							<circle class="st17" cx="261" cy="170.8" r="10.5"/>
						</g>
					</g>
					<circle class="st18" cx="261" cy="170.8" r="9.1"/>
					<g>
						<g class="st16">
							<circle class="st11" cx="260.4" cy="171.4" r="6.2"/>
						</g>
						<g>
							
								<linearGradient id="SVGID_4_" gradientUnits="userSpaceOnUse" x1="254.8793" y1="270.7717" x2="267.2132" y2="270.7717" gradientTransform="matrix(1 0 0 1 0 -100)">
								<stop  offset="0" style="stop-color:#888888"/>
								<stop  offset="0.3949" style="stop-color:#4E4E4E"/>
								<stop  offset="0.8024" style="stop-color:#171717"/>
								<stop  offset="1" style="stop-color:#010101"/>
							</linearGradient>
							<circle class="st19" cx="261" cy="170.8" r="6.2"/>
						</g>
					</g>
				</g>
				<g>
					<g class="st16">
						<path class="st11" d="M260.9,158.1h-9.1c-0.9,0-1.7-0.8-1.7-1.7V150c0-0.9,0.8-1.7,1.7-1.7h9.1c0.9,0,1.7,0.8,1.7,1.7v6.5
							C262.6,157.4,261.8,158.1,260.9,158.1z"/>
					</g>
					<g>
						<path class="st20" d="M261.4,157.5h-9.1c-0.9,0-1.7-0.8-1.7-1.7v-6.5c0-0.9,0.8-1.7,1.7-1.7h9.1c0.9,0,1.7,0.8,1.7,1.7v6.5
							C263.1,156.8,262.3,157.5,261.4,157.5z"/>
					</g>
				</g>
				<g>
					<g class="st16">
						<path class="st11" d="M268.4,157.3h-2.8c-0.6,0-1.1-0.5-1.1-1.1v-0.8c0-0.6,0.5-1.1,1.1-1.1h2.8c0.6,0,1.1,0.5,1.1,1.1v0.8
							C269.5,156.8,269,157.3,268.4,157.3z"/>
					</g>
					<g>
						<path class="st21" d="M268.9,156.8h-2.8c-0.6,0-1.1-0.5-1.1-1.1v-0.8c0-0.6,0.5-1.1,1.1-1.1h2.8c0.6,0,1.1,0.5,1.1,1.1v0.8
							C270,156.2,269.6,156.8,268.9,156.8z"/>
					</g>
				</g>
				<g>
					<g class="st16">
						<path class="st11" d="M274.6,157.3h-2.8c-0.6,0-1.1-0.5-1.1-1.1v-0.8c0-0.6,0.5-1.1,1.1-1.1h2.8c0.6,0,1.1,0.5,1.1,1.1v0.8
							C275.6,156.8,275.2,157.3,274.6,157.3z"/>
					</g>
					<g>
						<path class="st20" d="M275.1,156.8h-2.8c-0.6,0-1.1-0.5-1.1-1.1v-0.8c0-0.6,0.5-1.1,1.1-1.1h2.8c0.6,0,1.1,0.5,1.1,1.1v0.8
							C276.2,156.2,275.7,156.8,275.1,156.8z"/>
					</g>
				</g>
				<g>
					<g class="st16">
						<path class="st11" d="M280.8,157.3H278c-0.6,0-1.1-0.5-1.1-1.1v-0.8c0-0.6,0.5-1.1,1.1-1.1h2.8c0.6,0,1.1,0.5,1.1,1.1v0.8
							C281.8,156.8,281.3,157.3,280.8,157.3z"/>
					</g>
					<g>
						<path class="st22" d="M281.3,156.8h-2.8c-0.6,0-1.1-0.5-1.1-1.1v-0.8c0-0.6,0.5-1.1,1.1-1.1h2.8c0.6,0,1.1,0.5,1.1,1.1v0.8
							C282.3,156.2,281.9,156.8,281.3,156.8z"/>
					</g>
				</g>
				<path class="st14" d="M277.7,148h-9c-0.7,0-1.2-0.5-1.2-1.2v-6.2c0-0.7,0.5-1.2,1.2-1.2h9c0.7,0,1.2,0.5,1.2,1.2v6.2
					C279,147.4,278.4,148,277.7,148z"/>
				<path class="st20" d="M277,147.1h-7.5c-0.5,0-1-0.5-1-1v-4.8c0-0.5,0.5-1,1-1h7.5c0.5,0,1,0.5,1,1v4.8
					C278,146.6,277.6,147.1,277,147.1z"/>
			</g>
		</g>
	</g>
</g>
<path class="st4" d="M185.1,431h-43.3c-6.6,0-12-5.4-12-12v-94.9c0-6.6,5.4-12,12-12h43.3c6.6,0,12,5.4,12,12V419
	C197.1,425.6,191.7,431,185.1,431z"/>
<rect x="133.6" y="325.6" class="st3" width="59.6" height="89"/>
<circle class="st23" cx="162.2" cy="423" r="4.9"/>
<rect x="145.3" y="345.8" class="st24" width="36.3" height="39"/>
<rect x="148.3" y="348.3" class="st9" width="30.3" height="28.4"/>
<g>
	<g class="st10">
		<path class="st11" d="M170.2,357h-1.9c-0.4,0-0.6-0.3-0.6-0.6v-2.2c0-0.4,0.3-0.6,0.6-0.6h1.9c0.4,0,0.6,0.3,0.6,0.6v2.2
			C170.9,356.7,170.6,357,170.2,357z"/>
		<path class="st11" d="M172.3,371.4h-17.4c-0.9,0-1.7-0.7-1.7-1.7v-12.4c0-0.9,0.7-1.7,1.7-1.7h17.4c0.9,0,1.7,0.7,1.7,1.7v12.4
			C174,370.6,173.3,371.4,172.3,371.4z"/>
		<circle class="st11" cx="163.7" cy="364.7" r="4.6"/>
		<circle class="st25" cx="163.7" cy="364.7" r="4.6"/>
		<circle class="st11" cx="163.9" cy="364.4" r="4.6"/>
		<circle class="st25" cx="163.9" cy="364.4" r="4.6"/>
		<circle class="st26" cx="163.9" cy="364.4" r="4"/>
		<circle class="st11" cx="163.7" cy="364.7" r="2.7"/>
		<circle class="st11" cx="163.9" cy="364.4" r="2.7"/>
		<path class="st11" d="M163.9,358.9h-4c-0.4,0-0.7-0.3-0.7-0.7v-2.8c0-0.4,0.3-0.7,0.7-0.7h4c0.4,0,0.7,0.3,0.7,0.7v2.8
			C164.6,358.6,164.3,358.9,163.9,358.9z"/>
		<path class="st11" d="M164.1,358.7h-4c-0.4,0-0.7-0.3-0.7-0.7v-2.8c0-0.4,0.3-0.7,0.7-0.7h4c0.4,0,0.7,0.3,0.7,0.7v2.8
			C164.8,358.3,164.5,358.7,164.1,358.7z"/>
		<path class="st11" d="M167.2,358.5h-1.2c-0.3,0-0.5-0.2-0.5-0.5v-0.4c0-0.3,0.2-0.5,0.5-0.5h1.2c0.3,0,0.5,0.2,0.5,0.5v0.4
			C167.6,358.3,167.4,358.5,167.2,358.5z"/>
		<path class="st11" d="M167.4,358.3h-1.2c-0.3,0-0.5-0.2-0.5-0.5v-0.4c0-0.3,0.2-0.5,0.5-0.5h1.2c0.3,0,0.5,0.2,0.5,0.5v0.4
			C167.9,358.1,167.7,358.3,167.4,358.3z"/>
		<path class="st11" d="M169.8,358.5h-1.2c-0.3,0-0.5-0.2-0.5-0.5v-0.4c0-0.3,0.2-0.5,0.5-0.5h1.2c0.3,0,0.5,0.2,0.5,0.5v0.4
			C170.3,358.3,170.1,358.5,169.8,358.5z"/>
		<path class="st11" d="M170.1,358.3h-1.2c-0.3,0-0.5-0.2-0.5-0.5v-0.4c0-0.3,0.2-0.5,0.5-0.5h1.2c0.3,0,0.5,0.2,0.5,0.5v0.4
			C170.5,358.1,170.3,358.3,170.1,358.3z"/>
		<path class="st11" d="M172.5,358.5h-1.2c-0.3,0-0.5-0.2-0.5-0.5v-0.4c0-0.3,0.2-0.5,0.5-0.5h1.2c0.3,0,0.5,0.2,0.5,0.5v0.4
			C173,358.3,172.8,358.5,172.5,358.5z"/>
		<path class="st11" d="M172.7,358.3h-1.2c-0.3,0-0.5-0.2-0.5-0.5v-0.4c0-0.3,0.2-0.5,0.5-0.5h1.2c0.3,0,0.5,0.2,0.5,0.5v0.4
			C173.2,358.1,173,358.3,172.7,358.3z"/>
		<path class="st11" d="M171.2,354.5h-3.9c-0.3,0-0.5-0.2-0.5-0.5v-2.7c0-0.3,0.2-0.5,0.5-0.5h3.9c0.3,0,0.5,0.2,0.5,0.5v2.7
			C171.7,354.3,171.5,354.5,171.2,354.5z"/>
		<path class="st11" d="M170.9,354.1h-3.3c-0.2,0-0.4-0.2-0.4-0.4v-2.1c0-0.2,0.2-0.4,0.4-0.4h3.3c0.2,0,0.4,0.2,0.4,0.4v2.1
			C171.3,353.9,171.1,354.1,170.9,354.1z"/>
	</g>
	<g>
		<g>
			<path class="st14" d="M170,357.2h-1.9c-0.4,0-0.6-0.3-0.6-0.6v-2.2c0-0.4,0.3-0.6,0.6-0.6h1.9c0.4,0,0.6,0.3,0.6,0.6v2.2
				C170.7,357,170.4,357.2,170,357.2z"/>
			<g>
				<g>
					<path class="st15" d="M172.1,371.6h-17.4c-0.9,0-1.7-0.7-1.7-1.7v-12.4c0-0.9,0.7-1.7,1.7-1.7h17.4c0.9,0,1.7,0.7,1.7,1.7v12.4
						C173.8,370.8,173,371.6,172.1,371.6z"/>
				</g>
				<g>
					<g>
						<g class="st16">
							<circle class="st11" cx="163.5" cy="364.9" r="4.6"/>
							<circle class="st25" cx="163.5" cy="364.9" r="4.6"/>
						</g>
						<g>
							<circle class="st1" cx="163.7" cy="364.6" r="4.6"/>
							<circle class="st27" cx="163.7" cy="364.6" r="4.6"/>
						</g>
					</g>
					<circle class="st28" cx="163.7" cy="364.6" r="4"/>
					<g>
						<g class="st16">
							<circle class="st11" cx="163.5" cy="364.9" r="2.7"/>
						</g>
						<g>
							
								<linearGradient id="SVGID_5_" gradientUnits="userSpaceOnUse" x1="161.067" y1="464.6212" x2="166.4325" y2="464.6212" gradientTransform="matrix(1 0 0 1 0 -100)">
								<stop  offset="0" style="stop-color:#888888"/>
								<stop  offset="0.3949" style="stop-color:#4E4E4E"/>
								<stop  offset="0.8024" style="stop-color:#171717"/>
								<stop  offset="1" style="stop-color:#010101"/>
							</linearGradient>
							<circle class="st29" cx="163.7" cy="364.6" r="2.7"/>
						</g>
					</g>
				</g>
				<g>
					<g class="st16">
						<path class="st11" d="M163.7,359.1h-4c-0.4,0-0.7-0.3-0.7-0.7v-2.8c0-0.4,0.3-0.7,0.7-0.7h4c0.4,0,0.7,0.3,0.7,0.7v2.8
							C164.4,358.8,164.1,359.1,163.7,359.1z"/>
					</g>
					<g>
						<path class="st20" d="M163.9,358.9h-4c-0.4,0-0.7-0.3-0.7-0.7v-2.8c0-0.4,0.3-0.7,0.7-0.7h4c0.4,0,0.7,0.3,0.7,0.7v2.8
							C164.6,358.6,164.3,358.9,163.9,358.9z"/>
					</g>
				</g>
				<g>
					<g class="st16">
						<path class="st11" d="M167,358.8h-1.2c-0.3,0-0.5-0.2-0.5-0.5v-0.4c0-0.3,0.2-0.5,0.5-0.5h1.2c0.3,0,0.5,0.2,0.5,0.5v0.4
							C167.4,358.5,167.2,358.8,167,358.8z"/>
					</g>
					<g>
						<path class="st21" d="M167.2,358.5h-1.2c-0.3,0-0.5-0.2-0.5-0.5v-0.4c0-0.3,0.2-0.5,0.5-0.5h1.2c0.3,0,0.5,0.2,0.5,0.5v0.4
							C167.7,358.3,167.5,358.5,167.2,358.5z"/>
					</g>
				</g>
				<g>
					<g class="st16">
						<path class="st11" d="M169.6,358.8h-1.2c-0.3,0-0.5-0.2-0.5-0.5v-0.4c0-0.3,0.2-0.5,0.5-0.5h1.2c0.3,0,0.5,0.2,0.5,0.5v0.4
							C170.1,358.5,169.9,358.8,169.6,358.8z"/>
					</g>
					<g>
						<path class="st20" d="M169.9,358.5h-1.2c-0.3,0-0.5-0.2-0.5-0.5v-0.4c0-0.3,0.2-0.5,0.5-0.5h1.2c0.3,0,0.5,0.2,0.5,0.5v0.4
							C170.3,358.3,170.1,358.5,169.9,358.5z"/>
					</g>
				</g>
				<g>
					<g class="st16">
						<path class="st11" d="M172.3,358.8h-1.2c-0.3,0-0.5-0.2-0.5-0.5v-0.4c0-0.3,0.2-0.5,0.5-0.5h1.2c0.3,0,0.5,0.2,0.5,0.5v0.4
							C172.8,358.5,172.6,358.8,172.3,358.8z"/>
					</g>
					<g>
						<path class="st22" d="M172.5,358.5h-1.2c-0.3,0-0.5-0.2-0.5-0.5v-0.4c0-0.3,0.2-0.5,0.5-0.5h1.2c0.3,0,0.5,0.2,0.5,0.5v0.4
							C173,358.3,172.8,358.5,172.5,358.5z"/>
					</g>
				</g>
				<path class="st14" d="M171,354.7h-3.9c-0.3,0-0.5-0.2-0.5-0.5v-2.7c0-0.3,0.2-0.5,0.5-0.5h3.9c0.3,0,0.5,0.2,0.5,0.5v2.7
					C171.5,354.5,171.3,354.7,171,354.7z"/>
				<path class="st20" d="M170.7,354.3h-3.3c-0.2,0-0.4-0.2-0.4-0.4v-2.1c0-0.2,0.2-0.4,0.4-0.4h3.3c0.2,0,0.4,0.2,0.4,0.4v2.1
					C171.1,354.1,170.9,354.3,170.7,354.3z"/>
			</g>
		</g>
	</g>
</g>
<path class="st4" d="M225.2,413.1v-72.9c0-10.5,8.6-19.1,19.1-19.1H389c10.5,0,19.1,8.6,19.1,19.1v72.9c0,10.5-8.6,19.1-19.1,19.1
	H244.3C233.8,432.3,225.2,423.6,225.2,413.1z"/>
<rect x="269.7" y="308.2" transform="matrix(-1.836970e-16 1 -1 -1.836970e-16 695.624 57.731)" class="st3" width="98.4" height="136.9"/>
<circle class="st30" cx="238.6" cy="376.7" r="6.9"/>
<rect x="289.4" y="342.6" class="st31" width="60.7" height="65.2"/>
<rect x="294.5" y="346.7" class="st9" width="50.7" height="47.5"/>
<g>
	<g class="st10">
		<path class="st11" d="M331.2,361.3H328c-0.6,0-1.1-0.5-1.1-1.1v-3.7c0-0.6,0.5-1.1,1.1-1.1h3.2c0.6,0,1.1,0.5,1.1,1.1v3.7
			C332.3,360.8,331.8,361.3,331.2,361.3z"/>
		<path class="st11" d="M334.7,385.3h-29.2c-1.5,0-2.8-1.2-2.8-2.8v-20.7c0-1.5,1.2-2.8,2.8-2.8h29.2c1.5,0,2.8,1.2,2.8,2.8v20.7
			C337.5,384.1,336.3,385.3,334.7,385.3z"/>
		<circle class="st11" cx="320.2" cy="374.2" r="7.6"/>
		<circle class="st32" cx="320.2" cy="374.2" r="7.6"/>
		<circle class="st11" cx="320.7" cy="373.7" r="7.6"/>
		<circle class="st32" cx="320.7" cy="373.7" r="7.6"/>
		<circle class="st33" cx="320.7" cy="373.7" r="6.6"/>
		<circle class="st11" cx="320.2" cy="374.2" r="4.5"/>
		<circle class="st11" cx="320.7" cy="373.7" r="4.5"/>
		<path class="st11" d="M320.6,364.5H314c-0.7,0-1.2-0.6-1.2-1.2v-4.7c0-0.7,0.6-1.2,1.2-1.2h6.6c0.7,0,1.2,0.6,1.2,1.2v4.7
			C321.8,364,321.2,364.5,320.6,364.5z"/>
		<path class="st11" d="M321,364.1h-6.6c-0.7,0-1.2-0.6-1.2-1.2v-4.7c0-0.7,0.6-1.2,1.2-1.2h6.6c0.7,0,1.2,0.6,1.2,1.2v4.7
			C322.2,363.5,321.6,364.1,321,364.1z"/>
		<path class="st11" d="M326.1,363.9H324c-0.4,0-0.8-0.3-0.8-0.8v-0.6c0-0.4,0.3-0.8,0.8-0.8h2.1c0.4,0,0.8,0.3,0.8,0.8v0.6
			C326.8,363.5,326.5,363.9,326.1,363.9z"/>
		<path class="st11" d="M326.4,363.5h-2.1c-0.4,0-0.8-0.3-0.8-0.8v-0.6c0-0.4,0.3-0.8,0.8-0.8h2.1c0.4,0,0.8,0.3,0.8,0.8v0.6
			C327.2,363.1,326.9,363.5,326.4,363.5z"/>
		<path class="st11" d="M330.5,363.9h-2.1c-0.4,0-0.8-0.3-0.8-0.8v-0.6c0-0.4,0.3-0.8,0.8-0.8h2.1c0.4,0,0.8,0.3,0.8,0.8v0.6
			C331.3,363.5,331,363.9,330.5,363.9z"/>
		<path class="st11" d="M330.9,363.5h-2.1c-0.4,0-0.8-0.3-0.8-0.8v-0.6c0-0.4,0.3-0.8,0.8-0.8h2.1c0.4,0,0.8,0.3,0.8,0.8v0.6
			C331.7,363.1,331.4,363.5,330.9,363.5z"/>
		<path class="st11" d="M335.1,363.9H333c-0.4,0-0.8-0.3-0.8-0.8v-0.6c0-0.4,0.3-0.8,0.8-0.8h2.1c0.4,0,0.8,0.3,0.8,0.8v0.6
			C335.8,363.5,335.5,363.9,335.1,363.9z"/>
		<path class="st11" d="M335.4,363.5h-2.1c-0.4,0-0.8-0.3-0.8-0.8v-0.6c0-0.4,0.3-0.8,0.8-0.8h2.1c0.4,0,0.8,0.3,0.8,0.8v0.6
			C336.2,363.1,335.8,363.5,335.4,363.5z"/>
		<path class="st11" d="M332.8,357.1h-6.5c-0.5,0-0.9-0.4-0.9-0.9v-4.5c0-0.5,0.4-0.9,0.9-0.9h6.5c0.5,0,0.9,0.4,0.9,0.9v4.5
			C333.7,356.7,333.3,357.1,332.8,357.1z"/>
		<path class="st11" d="M332.3,356.5h-5.5c-0.4,0-0.7-0.3-0.7-0.7v-3.5c0-0.4,0.3-0.7,0.7-0.7h5.5c0.4,0,0.7,0.3,0.7,0.7v3.5
			C333,356.1,332.7,356.5,332.3,356.5z"/>
	</g>
	<g>
		<g>
			<path class="st14" d="M330.9,361.7h-3.2c-0.6,0-1.1-0.5-1.1-1.1v-3.7c0-0.6,0.5-1.1,1.1-1.1h3.2c0.6,0,1.1,0.5,1.1,1.1v3.7
				C331.9,361.2,331.4,361.7,330.9,361.7z"/>
			<g>
				<g>
					<path class="st15" d="M334.4,385.6h-29.2c-1.5,0-2.8-1.2-2.8-2.8v-20.7c0-1.5,1.2-2.8,2.8-2.8h29.2c1.5,0,2.8,1.2,2.8,2.8v20.7
						C337.2,384.4,335.9,385.6,334.4,385.6z"/>
				</g>
				<g>
					<g>
						<g class="st16">
							<circle class="st11" cx="319.9" cy="374.5" r="7.6"/>
							<circle class="st32" cx="319.9" cy="374.5" r="7.6"/>
						</g>
						<g>
							<circle class="st1" cx="320.3" cy="374" r="7.6"/>
							<circle class="st34" cx="320.3" cy="374" r="7.6"/>
						</g>
					</g>
					<circle class="st35" cx="320.3" cy="374" r="6.6"/>
					<g>
						<g class="st16">
							<circle class="st11" cx="319.9" cy="374.5" r="4.5"/>
						</g>
						<g>
							
								<linearGradient id="SVGID_6_" gradientUnits="userSpaceOnUse" x1="315.8766" y1="474.0465" x2="324.8452" y2="474.0465" gradientTransform="matrix(1 0 0 1 0 -100)">
								<stop  offset="0" style="stop-color:#888888"/>
								<stop  offset="0.3949" style="stop-color:#4E4E4E"/>
								<stop  offset="0.8024" style="stop-color:#171717"/>
								<stop  offset="1" style="stop-color:#010101"/>
							</linearGradient>
							<circle class="st36" cx="320.3" cy="374" r="4.5"/>
						</g>
					</g>
				</g>
				<g>
					<g class="st16">
						<path class="st11" d="M320.2,364.9h-6.6c-0.7,0-1.2-0.6-1.2-1.2v-4.7c0-0.7,0.6-1.2,1.2-1.2h6.6c0.7,0,1.2,0.6,1.2,1.2v4.7
							C321.5,364.3,320.9,364.9,320.2,364.9z"/>
					</g>
					<g>
						<path class="st20" d="M320.6,364.4H314c-0.7,0-1.2-0.6-1.2-1.2v-4.7c0-0.7,0.6-1.2,1.2-1.2h6.6c0.7,0,1.2,0.6,1.2,1.2v4.7
							C321.9,363.9,321.3,364.4,320.6,364.4z"/>
					</g>
				</g>
				<g>
					<g class="st16">
						<path class="st11" d="M325.7,364.3h-2.1c-0.4,0-0.8-0.3-0.8-0.8v-0.6c0-0.4,0.3-0.8,0.8-0.8h2.1c0.4,0,0.8,0.3,0.8,0.8v0.6
							C326.5,363.9,326.2,364.3,325.7,364.3z"/>
					</g>
					<g>
						<path class="st21" d="M326.1,363.9H324c-0.4,0-0.8-0.3-0.8-0.8v-0.6c0-0.4,0.3-0.8,0.8-0.8h2.1c0.4,0,0.8,0.3,0.8,0.8v0.6
							C326.9,363.5,326.6,363.9,326.1,363.9z"/>
					</g>
				</g>
				<g>
					<g class="st16">
						<path class="st11" d="M330.2,364.3h-2.1c-0.4,0-0.8-0.3-0.8-0.8v-0.6c0-0.4,0.3-0.8,0.8-0.8h2.1c0.4,0,0.8,0.3,0.8,0.8v0.6
							C331,363.9,330.6,364.3,330.2,364.3z"/>
					</g>
					<g>
						<path class="st20" d="M330.6,363.9h-2.1c-0.4,0-0.8-0.3-0.8-0.8v-0.6c0-0.4,0.3-0.8,0.8-0.8h2.1c0.4,0,0.8,0.3,0.8,0.8v0.6
							C331.4,363.5,331,363.9,330.6,363.9z"/>
					</g>
				</g>
				<g>
					<g class="st16">
						<path class="st11" d="M334.7,364.3h-2.1c-0.4,0-0.8-0.3-0.8-0.8v-0.6c0-0.4,0.3-0.8,0.8-0.8h2.1c0.4,0,0.8,0.3,0.8,0.8v0.6
							C335.5,363.9,335.1,364.3,334.7,364.3z"/>
					</g>
					<g>
						<path class="st22" d="M335.1,363.9H333c-0.4,0-0.8-0.3-0.8-0.8v-0.6c0-0.4,0.3-0.8,0.8-0.8h2.1c0.4,0,0.8,0.3,0.8,0.8v0.6
							C335.8,363.5,335.5,363.9,335.1,363.9z"/>
					</g>
				</g>
				<path class="st14" d="M332.5,357.5h-6.5c-0.5,0-0.9-0.4-0.9-0.9v-4.5c0-0.5,0.4-0.9,0.9-0.9h6.5c0.5,0,0.9,0.4,0.9,0.9v4.5
					C333.4,357.1,333,357.5,332.5,357.5z"/>
				<path class="st20" d="M332,356.8h-5.5c-0.4,0-0.7-0.3-0.7-0.7v-3.5c0-0.4,0.3-0.7,0.7-0.7h5.5c0.4,0,0.7,0.3,0.7,0.7v3.5
					C332.7,356.5,332.4,356.8,332,356.8z"/>
			</g>
		</g>
	</g>
</g>
</svg>
