<?xml version="1.0" encoding="utf-8"?>
<!-- Generator: Adobe Illustrator 21.0.2, SVG Export Plug-In . SVG Version: 6.00 Build 0)  -->
<svg version="1.1" id="Layer_1" xmlns="http://www.w3.org/2000/svg" xmlns:xlink="http://www.w3.org/1999/xlink" x="0px" y="0px"
	 viewBox="0 0 500 500" style="enable-background:new 0 0 500 500;" xml:space="preserve">
<style type="text/css">
	.st0{opacity:0.4;}
	.st1{fill:#FFFFFF;}
	.st2{fill:#FBDC7D;stroke:#FBDC7D;stroke-width:8.6764;stroke-linecap:round;stroke-linejoin:round;stroke-miterlimit:10;}
	.st3{fill:#F7C240;stroke:#F7C240;stroke-width:4.1027;stroke-linecap:round;stroke-linejoin:round;stroke-miterlimit:10;}
	.st4{fill:#DCC5DF;stroke:#DCC5DF;stroke-miterlimit:10;}
	.st5{fill:#7C7A92;}
	.st6{fill:#8A8C8E;stroke:#8A8C8E;stroke-miterlimit:10;}
</style>
<g class="st0">
	<rect x="59.6" y="59.6" class="st1" width="380.9" height="380.9"/>
</g>
<g>
	<path class="st2" d="M117.9,76c0,0.8,0,1.5-0.1,2.2c-1.5,24.7-28,27.3-28,27.3h28V76.8"/>
	<path class="st2" d="M118.7,135.5c0-0.8,0-1.5,0.1-2.2c1.5-24.7,27.9-27.3,27.9-27.3h-28v28.8"/>
	<path class="st2" d="M118.7,76c0,0.8,0,1.5,0.1,2.2c1.5,24.7,27.9,27.3,27.9,27.3h-28V76.8"/>
	<path class="st2" d="M117.9,135.5c0-0.8,0-1.5-0.1-2.2c-1.5-24.7-27.9-27.3-27.9-27.3h28v28.8"/>
	<path class="st3" d="M152.7,125.2c0,0.3,0,0.7,0,1c-0.7,11.7-13.2,12.9-13.2,12.9h13.2v-13.6"/>
	<path class="st3" d="M153.1,153.4c0-0.3,0-0.7,0-1c0.7-11.7,13.2-12.9,13.2-12.9h-13.2V153"/>
	<path class="st3" d="M153.1,125.2c0,0.3,0,0.7,0,1c0.7,11.7,13.2,12.9,13.2,12.9h-13.2v-13.6"/>
	<path class="st3" d="M152.7,153.4c0-0.3,0-0.7,0-1c-0.7-11.7-13.2-12.9-13.2-12.9h13.2V153"/>
</g>
<circle class="st4" cx="251.7" cy="193.7" r="85.4"/>
<polygon class="st5" points="266.4,310 205.4,312.8 173.1,364.6 151.5,307.5 92.3,292.8 140,254.7 135.6,193.7 186.6,227.3 
	243.2,204.4 227,263.3 "/>
<polygon class="st6" points="351.5,383.1 331.3,354.8 296.5,355.4 317.2,327.4 305.8,294.5 338.8,305.5 366.6,284.6 366.3,319.4 
	394.8,339.3 361.6,349.8 "/>
</svg>
