<?xml version="1.0" encoding="utf-8"?>
<!-- Generator: Adobe Illustrator 21.0.2, SVG Export Plug-In . SVG Version: 6.00 Build 0)  -->
<svg version="1.1" id="Layer_1" xmlns="http://www.w3.org/2000/svg" xmlns:xlink="http://www.w3.org/1999/xlink" x="0px" y="0px"
	 viewBox="0 0 500 500" style="enable-background:new 0 0 500 500;" xml:space="preserve">
<style type="text/css">
	.st0{opacity:0.4;fill:#FFFFFF;}
	.st1{fill:#7C7A92;}
	.st2{opacity:0.4;}
	.st3{fill:none;}
	.st4{fill-rule:evenodd;clip-rule:evenodd;fill:#231F20;}
</style>
<rect x="61.2" y="54" class="st0" width="377.6" height="376.9"/>
<g>
	<path class="st1" d="M262,330.6c0,47.2,0.9,54,27,56.2l14.4,1.3c2.7,1.8,1.8,9.9-0.9,11.2c-25.7-0.9-41-1.3-59-1.3
		s-33.8,0.5-62.5,1.3c-2.7-1.3-3.6-9,0-11.2l16.2-1.3c25.6-2.2,27.9-9,27.9-56.2V129.4c0-13.9,0-14.4-13.5-14.4h-24.8
		c-19.3,0-44.1,0.9-55.3,11.2c-10.8,9.9-15.3,19.8-20.2,31c-3.6,2.7-9.9,0.5-11.7-3.1c7.2-20.2,14-49,17.1-67c1.3-0.9,7.2-1.4,8.5,0
		c2.7,14.4,17.5,13.9,38.2,13.9h182.2c24.3,0,28.4-0.9,35.1-12.6c2.2-0.9,7.2-0.5,8.1,1.3c-5,18.5-8.1,54.9-6.8,68.4
		c-1.8,3.6-9.5,3.6-11.7,0.9c-1.3-11.2-4.5-27.9-11.2-32.9c-10.3-7.6-27.4-11.2-52.2-11.2h-32c-13.5,0-13,0.4-13,15.3v200.4H262z"/>
</g>
<g class="st2">
	<g>
		<g>
			<g>
				<g>
					<g>
						<rect x="16.2" y="317.2" class="st3" width="90" height="72.7"/>
					</g>
					<rect x="58" y="322.6" class="st4" width="9" height="13.5"/>
					<rect x="58" y="346.8" class="st4" width="9" height="13.5"/>
					<rect x="58" y="370.9" class="st4" width="9" height="13.5"/>
				</g>
			</g>
			<g>
				<g>
					<g>
						<rect x="16.2" y="244.4" class="st3" width="90" height="72.7"/>
					</g>
					<rect x="58" y="249.8" class="st4" width="9" height="13.5"/>
					<rect x="58" y="274" class="st4" width="9" height="13.5"/>
					<rect x="58" y="298.2" class="st4" width="9" height="13.5"/>
				</g>
			</g>
			<g>
				<g>
					<g>
						<rect x="16.2" y="171.7" class="st3" width="90" height="72.7"/>
					</g>
					<rect x="58" y="177.1" class="st4" width="9" height="13.5"/>
					<rect x="58" y="201.3" class="st4" width="9" height="13.5"/>
					<rect x="58" y="225.4" class="st4" width="9" height="13.5"/>
				</g>
			</g>
			<g>
				<g>
					<g>
						<rect x="16.2" y="99" class="st3" width="90" height="72.7"/>
					</g>
					<rect x="58" y="104.4" class="st4" width="9" height="13.5"/>
					<rect x="58" y="128.6" class="st4" width="9" height="13.5"/>
					<rect x="58" y="152.7" class="st4" width="9" height="13.5"/>
				</g>
			</g>
			<g>
				<g>
					<g>
						<rect x="106.2" y="9" class="st3" width="72.7" height="90"/>
					</g>
					<rect x="160.1" y="50.8" class="st4" width="13.5" height="9"/>
					<rect x="135.8" y="50.8" class="st4" width="13.5" height="9"/>
					<rect x="111.7" y="50.8" class="st4" width="13.5" height="9"/>
				</g>
			</g>
			<g>
				<g>
					<g>
						<rect x="178.9" y="9" class="st3" width="72.7" height="90"/>
					</g>
					<rect x="232.8" y="50.8" class="st4" width="13.5" height="9"/>
					<rect x="208.6" y="50.8" class="st4" width="13.5" height="9"/>
					<rect x="184.4" y="50.8" class="st4" width="13.5" height="9"/>
				</g>
			</g>
			<g>
				<g>
					<g>
						<rect x="251.6" y="9" class="st3" width="72.7" height="90"/>
					</g>
					<rect x="305.5" y="50.8" class="st4" width="13.5" height="9"/>
					<rect x="281.3" y="50.8" class="st4" width="13.5" height="9"/>
					<rect x="257.2" y="50.8" class="st4" width="13.5" height="9"/>
				</g>
			</g>
			<g>
				<g>
					<g>
						<rect x="324.4" y="9" class="st3" width="72.7" height="90"/>
					</g>
					<rect x="378.2" y="50.8" class="st4" width="13.5" height="9"/>
					<rect x="354" y="50.8" class="st4" width="13.5" height="9"/>
					<rect x="329.9" y="50.8" class="st4" width="13.5" height="9"/>
				</g>
			</g>
			<g>
				<g>
					<g>
						<rect x="397.1" y="99" class="st3" width="90" height="72.7"/>
					</g>
					<rect x="436.3" y="152.9" class="st4" width="9" height="13.5"/>
					<rect x="436.3" y="128.6" class="st4" width="9" height="13.5"/>
					<rect x="436.3" y="104.5" class="st4" width="9" height="13.5"/>
				</g>
			</g>
			<g>
				<g>
					<g>
						<rect x="397.1" y="171.7" class="st3" width="90" height="72.7"/>
					</g>
					<rect x="436.3" y="225.6" class="st4" width="9" height="13.5"/>
					<rect x="436.3" y="201.4" class="st4" width="9" height="13.5"/>
					<rect x="436.3" y="177.2" class="st4" width="9" height="13.5"/>
				</g>
			</g>
			<g>
				<g>
					<g>
						<rect x="397.1" y="244.4" class="st3" width="90" height="72.7"/>
					</g>
					<rect x="436.3" y="298.3" class="st4" width="9" height="13.5"/>
					<rect x="436.3" y="274.1" class="st4" width="9" height="13.5"/>
					<rect x="436.3" y="250" class="st4" width="9" height="13.5"/>
				</g>
			</g>
			<g>
				<g>
					<g>
						<rect x="397.1" y="317.2" class="st3" width="90" height="72.7"/>
					</g>
					<rect x="436.3" y="371" class="st4" width="9" height="13.5"/>
					<rect x="436.3" y="346.8" class="st4" width="9" height="13.5"/>
					<rect x="436.3" y="322.7" class="st4" width="9" height="13.5"/>
				</g>
			</g>
			<g>
				<g>
					<g>
						<rect x="324.4" y="389.9" class="st3" width="72.7" height="90"/>
					</g>
					<rect x="329.8" y="429.1" class="st4" width="13.5" height="9"/>
					<rect x="354" y="429.1" class="st4" width="13.5" height="9"/>
					<rect x="378.1" y="429.1" class="st4" width="13.5" height="9"/>
				</g>
			</g>
			<g>
				<g>
					<g>
						<rect x="251.6" y="389.9" class="st3" width="72.7" height="90"/>
					</g>
					<rect x="257" y="429.1" class="st4" width="13.5" height="9"/>
					<rect x="281.2" y="429.1" class="st4" width="13.5" height="9"/>
					<rect x="305.4" y="429.1" class="st4" width="13.5" height="9"/>
				</g>
			</g>
			<g>
				<g>
					<g>
						<rect x="178.9" y="389.9" class="st3" width="72.7" height="90"/>
					</g>
					<rect x="184.3" y="429.1" class="st4" width="13.5" height="9"/>
					<rect x="208.5" y="429.1" class="st4" width="13.5" height="9"/>
					<rect x="232.6" y="429.1" class="st4" width="13.5" height="9"/>
				</g>
			</g>
			<g>
				<g>
					<g>
						<rect x="106.2" y="389.9" class="st3" width="72.7" height="90"/>
					</g>
					<rect x="111.6" y="429.1" class="st4" width="13.5" height="9"/>
					<rect x="135.8" y="429.1" class="st4" width="13.5" height="9"/>
					<rect x="159.9" y="429.1" class="st4" width="13.5" height="9"/>
				</g>
			</g>
			<g>
				<rect x="57.4" y="77.8" class="st4" width="9" height="15"/>
				<polygon class="st4" points="57.4,50.8 57.4,65.8 66.4,65.8 66.4,59.8 72.4,59.8 72.4,50.8 				"/>
				<rect x="84.4" y="50.8" class="st4" width="15" height="9"/>
			</g>
			<g>
				<rect x="403.3" y="50.2" class="st4" width="15" height="9"/>
				<polygon class="st4" points="445.3,50.2 430.3,50.2 430.3,59.2 436.3,59.2 436.3,65.2 445.3,65.2 				"/>
				<rect x="436.3" y="77.2" class="st4" width="9" height="15"/>
			</g>
			<g>
				<rect x="436.9" y="396.1" class="st4" width="9" height="15"/>
				<polygon class="st4" points="445.9,438.1 445.9,423.1 436.9,423.1 436.9,429.1 430.9,429.1 430.9,438.1 				"/>
				<rect x="403.9" y="429.1" class="st4" width="15" height="9"/>
			</g>
			<g>
				<rect x="85" y="429.7" class="st4" width="15" height="9"/>
				<polygon class="st4" points="58,438.7 73,438.7 73,429.7 67,429.7 67,423.7 58,423.7 				"/>
				<rect x="58" y="396.7" class="st4" width="9" height="15"/>
			</g>
		</g>
	</g>
</g>
</svg>
